<svg width="120" height="120" viewBox="0 0 120 120" fill="none" xmlns="http://www.w3.org/2000/svg">
<g clip-path="url(#clip0_7_492)">
<path d="M60 118.125C92.1015 118.125 118.125 92.1015 118.125 60C118.125 27.8984 92.1015 1.875 60 1.875C27.8984 1.875 1.875 27.8984 1.875 60C1.875 92.1015 27.8984 118.125 60 118.125Z" fill="#515262"/>
<path d="M60 117.656C91.8427 117.656 117.656 91.8427 117.656 60C117.656 28.1573 91.8427 2.34375 60 2.34375C28.1573 2.34375 2.34375 28.1573 2.34375 60C2.34375 91.8427 28.1573 117.656 60 117.656Z" fill="#FF6464"/>
<path d="M60 95.3906C79.5457 95.3906 95.3906 79.5457 95.3906 60C95.3906 40.4543 79.5457 24.6094 60 24.6094C40.4543 24.6094 24.6094 40.4543 24.6094 60C24.6094 79.5457 40.4543 95.3906 60 95.3906Z" fill="#EFF2FA"/>
<path d="M22.6474 38.4345L9.65531 30.9335C4.70813 39.484 1.875 49.411 1.875 60H16.875C16.875 52.1435 18.9769 44.7785 22.6474 38.4345Z" fill="#FF6464"/>
<path d="M38.4344 22.6474L30.9335 9.65509C22.1132 14.7588 14.7588 22.1133 9.65527 30.9335L22.6474 38.4345C26.4339 31.8902 31.8902 26.434 38.4344 22.6474Z" fill="#EFF2FA"/>
<path d="M60 16.875V1.875C49.4107 1.875 39.4839 4.70789 30.9335 9.65531L38.4344 22.6477C44.7785 18.9771 52.1435 16.875 60 16.875Z" fill="#FF6464"/>
<path d="M103.125 60H118.125C118.125 49.411 115.292 39.484 110.345 30.9335L97.3525 38.4345C101.023 44.7785 103.125 52.1435 103.125 60Z" fill="#EFF2FA"/>
<path d="M97.3526 38.4344L110.345 30.9335C105.241 22.1133 97.887 14.7588 89.0665 9.6553L81.5656 22.6474C88.1098 26.434 93.566 31.8902 97.3526 38.4344Z" fill="#FF6464"/>
<path d="M81.5655 22.6474L89.0665 9.65531C80.516 4.70812 70.5891 1.875 60 1.875V16.875C67.8565 16.875 75.2215 18.9771 81.5655 22.6474Z" fill="#EFF2FA"/>
<path d="M16.875 60H1.875C1.875 70.5891 4.70813 80.516 9.65531 89.0667L22.6474 81.5655C18.9769 75.2215 16.875 67.8565 16.875 60Z" fill="#EFF2FA"/>
<path d="M81.5656 97.3526L89.0665 110.345C97.8867 105.241 105.241 97.887 110.345 89.0667L97.3526 81.5656C93.566 88.1098 88.1098 93.566 81.5656 97.3526Z" fill="#EFF2FA"/>
<path d="M22.6474 81.5656L9.65527 89.0667C14.7586 97.887 22.113 105.241 30.9335 110.345L38.4344 97.3526C31.8902 93.566 26.4339 88.1098 22.6474 81.5656Z" fill="#FF6464"/>
<path d="M103.125 60C103.125 67.8565 101.023 75.2215 97.3525 81.5655L110.345 89.0667C115.292 80.516 118.125 70.5891 118.125 60H103.125Z" fill="#FF6464"/>
<path d="M60 103.125V118.125C70.5891 118.125 80.516 115.292 89.0665 110.345L81.5655 97.3526C75.2215 101.023 67.8565 103.125 60 103.125Z" fill="#FF6464"/>
<path d="M38.4345 97.3526L30.9336 110.345C39.4841 115.292 49.411 118.125 60.0001 118.125V103.125C52.1436 103.125 44.7786 101.023 38.4345 97.3526Z" fill="#EFF2FA"/>
<path d="M92.7429 46.4794C91.5764 43.6582 89.9986 40.9472 88.0531 38.4221L87.2583 37.3906L92.5988 34.3074L93.2053 35.1146C95.2568 37.8448 96.9368 40.7192 98.1987 43.6571L98.5983 44.5875L93.2398 47.6813L92.7429 46.4794Z" fill="#EFF2FA"/>
<path d="M92.2941 35.7992L88.9557 37.7264C90.9092 40.2621 92.5555 43.0437 93.796 46.0439L97.1511 44.1068C95.8723 41.1289 94.2172 38.3588 92.2941 35.7992Z" fill="#EFF2FA"/>
<path d="M81.5779 31.9472C79.0528 30.0017 76.3418 28.4239 73.5206 27.2574L72.3187 26.7605L75.4125 21.402L76.3429 21.8016C79.2811 23.0635 82.155 24.7435 84.8854 26.7949L85.6926 27.4015L82.6097 32.742L81.5779 31.9472Z" fill="#EFF2FA"/>
<path d="M73.9561 26.2041C76.9563 27.4446 79.7379 29.0906 82.2736 31.0444L84.2008 27.7059C81.6412 25.7829 78.8709 24.1277 75.8932 22.8488L73.9561 26.2041Z" fill="#EFF2FA"/>
<path d="M64.6627 24.9145C62.888 24.6806 61.4066 24.5717 60.0001 24.5717C58.5936 24.5717 57.1121 24.6806 55.3374 24.9145L54.0486 25.0845V18.8848L55.0534 18.7648C56.8691 18.548 58.4872 18.4427 59.9998 18.4427C61.5125 18.4427 63.1306 18.548 64.9463 18.7648L65.9511 18.8848V25.0842L64.6627 24.9145Z" fill="#EFF2FA"/>
<path d="M55.1885 19.8966V23.7846C56.7668 23.5765 58.365 23.4321 60 23.4321C61.635 23.4321 63.2332 23.5767 64.8114 23.7846V19.8966C63.2306 19.7079 61.6307 19.5828 60 19.5828C58.3692 19.5828 56.7693 19.7079 55.1885 19.8966Z" fill="#EFF2FA"/>
<path d="M94.9158 65.9515L95.0857 64.6627C95.3196 62.888 95.4284 61.4065 95.4284 60C95.4284 58.5935 95.3194 57.112 95.0857 55.3374L94.9158 54.0485H101.115L101.235 55.0533C101.452 56.869 101.557 58.4869 101.557 59.9998C101.557 61.5131 101.452 63.131 101.235 64.9465L101.115 65.9513H94.9158V65.9515V65.9515Z" fill="#EFF2FA"/>
<path d="M96.5682 60C96.5682 61.6352 96.4236 63.2332 96.2157 64.8117H100.104C100.292 63.2306 100.418 61.631 100.418 60C100.418 58.3692 100.292 56.7694 100.104 55.1885H96.2157C96.4236 56.7668 96.5682 58.3648 96.5682 60Z" fill="#EFF2FA"/>
<path d="M18.885 65.9515L18.765 64.9467C18.5485 63.1313 18.443 61.5134 18.443 60C18.443 58.4871 18.5482 56.8692 18.765 55.0535L18.8848 54.0488H25.0845L24.9146 55.3376C24.6806 57.1123 24.5717 58.5938 24.5717 60.0003C24.5717 61.4067 24.6806 62.8882 24.9146 64.6629L25.0845 65.9517H18.885V65.9515Z" fill="#EFF2FA"/>
<path d="M23.4319 60C23.4319 58.3648 23.5765 56.7668 23.7844 55.1885H19.8966C19.7079 56.7694 19.5828 58.3692 19.5828 60C19.5828 61.631 19.7079 63.2306 19.8968 64.8117H23.7846C23.5765 63.2332 23.4319 61.6352 23.4319 60Z" fill="#EFF2FA"/>
<path d="M34.3071 27.4013L35.1143 26.7947C37.8446 24.7435 40.7187 23.0632 43.6568 21.8013L44.5873 21.4017L47.681 26.7602L46.4792 27.2571C43.658 28.4236 40.947 30.0014 38.4218 31.947L37.3901 32.7417L34.3071 27.4013Z" fill="#EFF2FA"/>
<path d="M37.7265 31.0444C40.2622 29.0909 43.0437 27.4446 46.044 26.2041L44.1069 22.849C41.1289 24.128 38.3588 25.7831 35.7992 27.7062L37.7265 31.0444Z" fill="#EFF2FA"/>
<path d="M87.2583 82.6097L88.0531 81.5782C89.9986 79.0531 91.5764 76.342 92.7429 73.5209L93.2398 72.319L98.5983 75.4127L98.1987 76.3432C96.937 79.2806 95.2571 82.1548 93.2053 84.8855L92.5988 85.6927L87.2583 82.6097Z" fill="#EFF2FA"/>
<path d="M97.1512 75.8935L93.7961 73.9563C92.5556 76.9566 90.9096 79.7379 88.9561 82.2738L92.2943 84.2011C94.2171 81.6413 95.8725 78.8712 97.1512 75.8935Z" fill="#EFF2FA"/>
<path d="M60.0001 101.557C58.4872 101.557 56.8693 101.452 55.0536 101.235L54.0488 101.115V94.916L55.3377 95.086C57.1123 95.3199 58.5938 95.4286 60.0003 95.4286C61.4068 95.4286 62.8883 95.3196 64.663 95.086L65.9518 94.916V101.115L64.947 101.235C63.1309 101.452 61.513 101.557 60.0001 101.557Z" fill="#EFF2FA"/>
<path d="M64.8114 100.103V96.2156C63.2332 96.4238 61.635 96.5684 60 96.5684C58.365 96.5684 56.7668 96.4238 55.1885 96.2156V100.104C56.7693 100.292 58.3692 100.418 60 100.418C61.6307 100.418 63.2306 100.292 64.8114 100.103Z" fill="#EFF2FA"/>
<path d="M72.319 93.2395L73.5208 92.7427C76.342 91.5762 79.053 89.9984 81.5782 88.0528L82.6099 87.2581L85.6929 92.5983L84.8857 93.2049C82.1552 95.2563 79.2811 96.9363 76.3432 98.1982L75.4127 98.5978L72.319 93.2395Z" fill="#EFF2FA"/>
<path d="M82.2736 88.9559C79.7379 90.9094 76.9563 92.5554 73.9561 93.7959L75.8932 97.151C78.8709 95.872 81.6412 94.2169 84.2008 92.2936L82.2736 88.9559Z" fill="#EFF2FA"/>
<path d="M43.6571 98.1985C40.7192 96.9366 37.845 95.2566 35.1146 93.2051L34.3074 92.5985L37.3903 87.2583L38.4221 88.0531C40.9472 89.9986 43.6582 91.5764 46.4794 92.7429L47.6813 93.2398L44.5875 98.5983L43.6571 98.1985Z" fill="#EFF2FA"/>
<path d="M46.044 93.7959C43.0437 92.5554 40.2622 90.9094 37.7265 88.9559L35.7992 92.2938C38.3588 94.2171 41.1291 95.8723 44.1069 97.1513L46.044 93.7959Z" fill="#EFF2FA"/>
<path d="M26.7947 84.8855C24.743 82.1548 23.063 79.2806 21.8013 76.3432L21.4017 75.4127L26.7602 72.319L27.2571 73.5209C28.4236 76.342 30.0014 79.0531 31.947 81.5782L32.7417 82.6097L27.4013 85.6927L26.7947 84.8855Z" fill="#EFF2FA"/>
<path d="M31.0442 82.2736C29.0906 79.7379 27.4446 76.9563 26.2041 73.9561L22.849 75.8932C24.1277 78.8709 25.7831 81.641 27.7062 84.2006L31.0442 82.2736Z" fill="#EFF2FA"/>
<path d="M21.402 44.5875L21.8016 43.6571C23.0635 40.7192 24.7435 37.845 26.7949 35.1146L27.4015 34.3074L32.742 37.3906L31.9472 38.4221C30.0017 40.9472 28.4239 43.6582 27.2574 46.4794L26.7605 47.6813L21.402 44.5875Z" fill="#EFF2FA"/>
<path d="M22.8488 44.1066L26.2038 46.0437C27.4444 43.0435 29.0904 40.2619 31.0439 37.7262L27.7057 35.7989C25.7829 38.3588 24.1277 41.1288 22.8488 44.1066Z" fill="#EFF2FA"/>
<path d="M102.427 17.5734C91.0938 6.24094 76.0266 0 60 0C43.9734 0 28.9062 6.24094 17.5734 17.5734C6.2407 28.9059 0 43.9734 0 60C0 76.0266 6.24094 91.0941 17.5734 102.427C28.9062 113.759 43.9734 120 60 120C76.0266 120 91.0938 113.759 102.427 102.427C113.759 91.0941 120 76.0266 120 60C120 43.9734 113.759 28.9062 102.427 17.5734ZM109.615 86.4799L99.8672 80.8523C102.869 75.1359 104.677 68.6995 104.958 61.875H116.216C115.923 70.7454 113.569 79.1018 109.615 86.4799ZM58.125 104.958V116.216C49.2546 115.923 40.8982 113.569 33.5201 109.615L39.1479 99.8672C44.8641 102.869 51.3005 104.677 58.125 104.958ZM61.875 104.958C68.6995 104.677 75.1359 102.869 80.8523 99.8672L86.4802 109.615C79.102 113.569 70.7454 115.924 61.8752 116.216L61.875 104.958ZM60 101.25C37.2546 101.25 18.75 82.7454 18.75 60C18.75 37.2546 37.2546 18.75 60 18.75C82.7454 18.75 101.25 37.2546 101.25 60C101.25 82.7454 82.7454 101.25 60 101.25ZM3.78445 61.875H15.042C15.3232 68.6995 17.1309 75.1359 20.1328 80.8523L10.3852 86.4802C6.43148 79.1018 4.07672 70.7454 3.78445 61.875ZM10.3854 33.5201L20.1328 39.1477C17.1309 44.8641 15.3232 51.3005 15.042 58.125H3.78445C4.07672 49.2546 6.43148 40.8982 10.3854 33.5201ZM61.875 15.042V3.78445C70.7454 4.07648 79.1018 6.43125 86.4799 10.3852L80.8523 20.1328C75.1359 17.1309 68.6995 15.3232 61.875 15.042ZM58.125 15.042C51.3005 15.3232 44.8641 17.1309 39.1477 20.1328L33.5198 10.3852C40.898 6.43125 49.2546 4.07648 58.1248 3.78445L58.125 15.042ZM104.958 58.125C104.677 51.3005 102.869 44.8641 99.8672 39.1477L109.615 33.5198C113.569 40.898 115.924 49.2546 116.216 58.1248L104.958 58.125ZM107.734 30.2761L97.988 35.9027C94.433 30.3183 89.682 25.567 84.0973 22.012L89.7239 12.2665C97.0087 16.8192 103.181 22.9912 107.734 30.2761ZM30.2761 12.2665L35.9027 22.012C30.3183 25.567 25.567 30.318 22.012 35.9027L12.2665 30.2761C16.8192 22.9912 22.9912 16.8192 30.2761 12.2665ZM12.2665 89.7239L22.012 84.0973C25.567 89.6817 30.318 94.433 35.9027 97.988L30.2761 107.734C22.9912 103.181 16.8192 97.0087 12.2665 89.7239ZM89.7239 107.734L84.0973 97.988C89.6817 94.433 94.433 89.682 97.988 84.0973L107.734 89.7239C103.181 97.0087 97.0087 103.181 89.7239 107.734Z" fill="#2D2B29"/>
<path d="M84.8674 37.1815C85.2373 37.5844 85.7424 37.7885 86.2491 37.7885C86.7021 37.7885 87.1566 37.6251 87.5166 37.2949C88.2795 36.5946 88.3301 35.4084 87.6298 34.6455C86.9065 33.8578 86.1406 33.0919 85.3531 32.369C84.5904 31.669 83.4042 31.7196 82.7039 32.4825C82.0036 33.2454 82.0545 34.4313 82.8174 35.1316C83.5263 35.7822 84.2161 36.472 84.8674 37.1815Z" fill="#2D2B29"/>
<path d="M26.25 60C26.25 41.3902 41.3902 26.25 60 26.25C65.5779 26.25 71.104 27.6387 75.9813 30.2658C76.893 30.7568 78.0302 30.416 78.5212 29.5043C79.0123 28.5923 78.6712 27.4554 77.7595 26.9641C72.3377 24.0436 66.1966 22.5 60 22.5C39.3225 22.5 22.5 39.3225 22.5 60C22.5 68.6119 25.492 77.0234 30.9251 83.685C31.2959 84.1395 31.8352 84.375 32.3794 84.375C32.7959 84.375 33.2152 84.2367 33.5632 83.9529C34.3657 83.2985 34.4857 82.1173 33.8313 81.3148C28.9423 75.3206 26.25 67.7508 26.25 60Z" fill="#2D2B29"/>
<path d="M93.0321 42.2335C92.5406 41.3217 91.4037 40.9812 90.4919 41.4724C89.5805 41.9637 89.2397 43.1009 89.7309 44.0124C92.3601 48.8911 93.75 54.4195 93.75 60C93.75 78.6099 78.6098 93.75 60 93.75C52.249 93.75 44.6789 91.0575 38.6845 86.1682C37.8823 85.5138 36.7012 85.6336 36.0464 86.4363C35.392 87.2388 35.5118 88.4199 36.3145 89.0745C42.9762 94.5077 51.3876 97.5 60 97.5C80.6775 97.5 97.5 80.6775 97.5 60C97.5 53.8006 95.955 47.6569 93.0321 42.2335Z" fill="#2D2B29"/>
<path d="M45.2656 58.5156V59.7422H39.1094V58.5156H45.2656ZM39.3438 53.625V65H37.8359V53.625H39.3438ZM46.5781 53.625V65H45.0781V53.625H46.5781ZM50.6094 56.5469V65H49.1562V56.5469H50.6094ZM49.0469 54.3047C49.0469 54.0703 49.1172 53.8724 49.2578 53.7109C49.4036 53.5495 49.6172 53.4688 49.8984 53.4688C50.1745 53.4688 50.3854 53.5495 50.5312 53.7109C50.6823 53.8724 50.7578 54.0703 50.7578 54.3047C50.7578 54.5286 50.6823 54.7214 50.5312 54.8828C50.3854 55.0391 50.1745 55.1172 49.8984 55.1172C49.6172 55.1172 49.4036 55.0391 49.2578 54.8828C49.1172 54.7214 49.0469 54.5286 49.0469 54.3047ZM56.4688 56.5469V57.6562H51.8984V56.5469H56.4688ZM53.4453 54.4922H54.8906V62.9062C54.8906 63.1927 54.9349 63.4089 55.0234 63.5547C55.112 63.7005 55.2266 63.7969 55.3672 63.8438C55.5078 63.8906 55.6589 63.9141 55.8203 63.9141C55.9401 63.9141 56.0651 63.9036 56.1953 63.8828C56.3307 63.8568 56.4323 63.8359 56.5 63.8203L56.5078 65C56.3932 65.0365 56.2422 65.0703 56.0547 65.1016C55.8724 65.138 55.651 65.1562 55.3906 65.1562C55.0365 65.1562 54.7109 65.0859 54.4141 64.9453C54.1172 64.8047 53.8802 64.5703 53.7031 64.2422C53.5312 63.9089 53.4453 63.4609 53.4453 62.8984V54.4922ZM62.8281 53.625H64.2891L68.0156 62.8984L71.7344 53.625H73.2031L68.5781 65H67.4375L62.8281 53.625ZM62.3516 53.625H63.6406L63.8516 60.5625V65H62.3516V53.625ZM72.3828 53.625H73.6719V65H72.1719V60.5625L72.3828 53.625ZM79.6094 65.1562C79.0208 65.1562 78.487 65.0573 78.0078 64.8594C77.5339 64.6562 77.125 64.3724 76.7812 64.0078C76.4427 63.6432 76.1823 63.2109 76 62.7109C75.8177 62.2109 75.7266 61.6641 75.7266 61.0703V60.7422C75.7266 60.0547 75.8281 59.4427 76.0312 58.9062C76.2344 58.3646 76.5104 57.9062 76.8594 57.5312C77.2083 57.1562 77.6042 56.8724 78.0469 56.6797C78.4896 56.487 78.9479 56.3906 79.4219 56.3906C80.026 56.3906 80.5469 56.4948 80.9844 56.7031C81.4271 56.9115 81.7891 57.2031 82.0703 57.5781C82.3516 57.9479 82.5599 58.3854 82.6953 58.8906C82.8307 59.3906 82.8984 59.9375 82.8984 60.5312V61.1797H76.5859V60H81.4531V59.8906C81.4323 59.5156 81.3542 59.151 81.2188 58.7969C81.0885 58.4427 80.8802 58.151 80.5938 57.9219C80.3073 57.6927 79.9167 57.5781 79.4219 57.5781C79.0938 57.5781 78.7917 57.6484 78.5156 57.7891C78.2396 57.9245 78.0026 58.1276 77.8047 58.3984C77.6068 58.6693 77.4531 59 77.3438 59.3906C77.2344 59.7812 77.1797 60.2318 77.1797 60.7422V61.0703C77.1797 61.4714 77.2344 61.849 77.3438 62.2031C77.4583 62.5521 77.6224 62.8594 77.8359 63.125C78.0547 63.3906 78.3177 63.599 78.625 63.75C78.9375 63.901 79.2917 63.9766 79.6875 63.9766C80.1979 63.9766 80.6302 63.8724 80.9844 63.6641C81.3385 63.4557 81.6484 63.1771 81.9141 62.8281L82.7891 63.5234C82.6068 63.7995 82.375 64.0625 82.0938 64.3125C81.8125 64.5625 81.4661 64.7656 81.0547 64.9219C80.6484 65.0781 80.1667 65.1562 79.6094 65.1562Z" fill="black"/>
</g>
<defs>
<clipPath id="clip0_7_492">
<rect width="120" height="120" fill="white"/>
</clipPath>
</defs>
</svg>
