<svg width="56" height="89" viewBox="0 0 56 89" fill="none" xmlns="http://www.w3.org/2000/svg">
<g clip-path="url(#clip0_14_2)">
<path d="M27.9998 53.3995C42.5265 53.3995 54.3026 41.8192 54.3026 27.5341C54.3026 13.2491 42.5265 1.66875 27.9998 1.66875C13.4732 1.66875 1.69702 13.2491 1.69702 27.5341C1.69702 41.8192 13.4732 53.3995 27.9998 53.3995Z" fill="#FF6464"/>
<path d="M27.9998 87.123C42.5265 87.123 54.3026 75.5426 54.3026 61.2576C54.3026 46.9725 42.5265 35.3922 27.9998 35.3922C13.4732 35.3922 1.69702 46.9725 1.69702 61.2576C1.69702 75.5426 13.4732 87.123 27.9998 87.123Z" fill="#FF6464"/>
<path d="M28.0001 35.7192C32.5971 35.7192 36.3238 32.0545 36.3238 27.5339C36.3238 23.0133 32.5971 19.3487 28.0001 19.3487C23.403 19.3487 19.6764 23.0133 19.6764 27.5339C19.6764 32.0545 23.403 35.7192 28.0001 35.7192Z" fill="#072B0E"/>
<path d="M28.0001 69.7699C32.5971 69.7699 36.3238 66.1053 36.3238 61.5847C36.3238 57.0641 32.5971 53.3994 28.0001 53.3994C23.403 53.3994 19.6764 57.0641 19.6764 61.5847C19.6764 66.1053 23.403 69.7699 28.0001 69.7699Z" fill="#072B0E"/>
<path d="M28 69.7699C23.4029 69.7699 19.6763 66.1053 19.6763 61.5847C19.6763 57.064 23.4029 53.3994 28 53.3994" stroke="#072B0E" stroke-width="5"/>
<path d="M28.0001 75.6639C20.0931 75.6639 13.6833 69.3605 13.6833 61.5852C13.6833 53.8096 20.0931 47.5064 28.0001 47.5064" stroke="#072B0E" stroke-width="5"/>
<path d="M28 81.5568C16.7833 81.5568 7.69031 72.6151 7.69031 61.5847C7.69031 50.5546 16.7833 41.6128 28 41.6128" stroke="#072B0E" stroke-width="5"/>
<path d="M28 87.4503C13.4734 87.4503 1.69727 75.8697 1.69727 61.5847C1.69727 47.2998 13.4734 35.7195 28 35.7195" stroke="#072B0E" stroke-width="5"/>
<path d="M28 35.7195C32.597 35.7195 36.3237 32.0548 36.3237 27.5342C36.3237 23.0136 32.597 19.349 28 19.349" stroke="#072B0E" stroke-width="5"/>
<path d="M28 41.6129C35.9069 41.6129 42.3167 35.3097 42.3167 27.5343C42.3167 19.7589 35.9069 13.4556 28 13.4556" stroke="#072B0E" stroke-width="5"/>
<path d="M28 47.5061C39.2167 47.5061 48.3097 38.5643 48.3097 27.534C48.3097 16.5038 39.2167 7.56205 28 7.56205" stroke="#072B0E" stroke-width="5"/>
<path d="M28 53.3995C42.5266 53.3995 54.3028 41.8192 54.3028 27.5342C54.3028 13.2491 42.5266 1.66875 28 1.66875" stroke="#072B0E" stroke-width="5"/>
<path d="M28 69.7699C32.597 69.7699 36.3237 66.1048 36.3237 61.5847C36.3237 57.064 32.597 53.3992 28 53.3992" stroke="#072B0E" stroke-width="5"/>
<path d="M28 75.6634C35.9069 75.6634 42.3167 69.3599 42.3167 61.5847C42.3167 57.6297 40.6584 54.0559 37.9884 51.4985" stroke="#072B0E" stroke-width="5"/>
<path d="M28 81.5568C39.2167 81.5568 48.3097 72.6151 48.3097 61.5846C48.3097 56.5745 46.4334 51.9948 43.334 48.4885" stroke="#072B0E" stroke-width="5"/>
<path d="M28 87.4503C42.5266 87.4503 54.3028 75.8697 54.3028 61.5847C54.3028 55.065 51.8497 49.1086 47.8017 44.5595" stroke="#072B0E" stroke-width="5"/>
<path d="M28 35.7195C23.4029 35.7195 19.6763 32.0548 19.6763 27.5342C19.6763 23.0136 23.4029 19.349 28 19.349" stroke="#072B0E" stroke-width="5"/>
<path d="M28.0001 13.4556C20.0931 13.4556 13.6833 19.7589 13.6833 27.5343C13.6833 31.5706 15.4107 35.2103 18.1781 37.7773" stroke="#072B0E" stroke-width="5"/>
<path d="M28 7.56205C16.7833 7.56205 7.69031 16.5038 7.69031 27.5341C7.69031 32.5446 9.56659 37.1242 12.666 40.6304" stroke="#072B0E" stroke-width="5"/>
<path d="M28 1.66875C13.4734 1.66875 1.69727 13.2491 1.69727 27.5342C1.69727 33.976 4.09203 39.8679 8.05387 44.3958" stroke="#072B0E" stroke-width="5"/>
<path d="M27.833 29.8262C29.0282 29.8262 29.9971 28.8734 29.9971 27.698C29.9971 26.5227 29.0282 25.5699 27.833 25.5699C26.6377 25.5699 25.6688 26.5227 25.6688 27.698C25.6688 28.8734 26.6377 29.8262 27.833 29.8262Z" fill="white"/>
<path d="M27.833 63.5493C29.0282 63.5493 29.9971 62.5965 29.9971 61.4211C29.9971 60.2458 29.0282 59.293 27.833 59.293C26.6377 59.293 25.6688 60.2458 25.6688 61.4211C25.6688 62.5965 26.6377 63.5493 27.833 63.5493Z" fill="white"/>
</g>
<defs>
<clipPath id="clip0_14_2">
<rect width="56" height="89" fill="white"/>
</clipPath>
</defs>
</svg>
