<svg width="120" height="120" viewBox="0 0 120 120" fill="none" xmlns="http://www.w3.org/2000/svg">
<g clip-path="url(#clip0_7_541)">
<path d="M60 118.125C92.1015 118.125 118.125 92.1015 118.125 60C118.125 27.8984 92.1015 1.875 60 1.875C27.8984 1.875 1.875 27.8984 1.875 60C1.875 92.1015 27.8984 118.125 60 118.125Z" fill="#515262"/>
<path d="M60 117.656C91.8427 117.656 117.656 91.8427 117.656 60C117.656 28.1573 91.8427 2.34375 60 2.34375C28.1573 2.34375 2.34375 28.1573 2.34375 60C2.34375 91.8427 28.1573 117.656 60 117.656Z" fill="#FF6464"/>
<path d="M60 95.3906C79.5457 95.3906 95.3906 79.5457 95.3906 60C95.3906 40.4543 79.5457 24.6094 60 24.6094C40.4543 24.6094 24.6094 40.4543 24.6094 60C24.6094 79.5457 40.4543 95.3906 60 95.3906Z" fill="#EFF2FA"/>
<path d="M22.6474 38.4345L9.65531 30.9335C4.70813 39.484 1.875 49.4109 1.875 60H16.875C16.875 52.1435 18.9769 44.7785 22.6474 38.4345Z" fill="#FF6464"/>
<path d="M38.4344 22.6474L30.9335 9.65508C22.1132 14.7588 14.7588 22.1133 9.65527 30.9335L22.6474 38.4345C26.4339 31.8902 31.8902 26.434 38.4344 22.6474Z" fill="#EFF2FA"/>
<path d="M60 16.875V1.875C49.4107 1.875 39.4839 4.70789 30.9335 9.65531L38.4344 22.6477C44.7785 18.9771 52.1435 16.875 60 16.875Z" fill="#FF6464"/>
<path d="M103.125 60H118.125C118.125 49.4109 115.292 39.484 110.345 30.9335L97.3525 38.4345C101.023 44.7785 103.125 52.1435 103.125 60Z" fill="#EFF2FA"/>
<path d="M97.3526 38.4345L110.345 30.9335C105.241 22.1133 97.887 14.7588 89.0665 9.65531L81.5656 22.6474C88.1098 26.434 93.566 31.8902 97.3526 38.4345Z" fill="#FF6464"/>
<path d="M81.5655 22.6474L89.0665 9.65531C80.516 4.70812 70.5891 1.875 60 1.875V16.875C67.8565 16.875 75.2215 18.9771 81.5655 22.6474Z" fill="#EFF2FA"/>
<path d="M16.875 60H1.875C1.875 70.5891 4.70813 80.516 9.65531 89.0667L22.6474 81.5655C18.9769 75.2215 16.875 67.8565 16.875 60Z" fill="#EFF2FA"/>
<path d="M81.5656 97.3526L89.0665 110.345C97.8867 105.241 105.241 97.887 110.345 89.0667L97.3526 81.5656C93.566 88.1098 88.1098 93.566 81.5656 97.3526Z" fill="#EFF2FA"/>
<path d="M22.6474 81.5655L9.65527 89.0667C14.7586 97.887 22.113 105.241 30.9335 110.345L38.4344 97.3526C31.8902 93.566 26.4339 88.1098 22.6474 81.5655Z" fill="#FF6464"/>
<path d="M103.125 60C103.125 67.8565 101.023 75.2215 97.3525 81.5655L110.345 89.0667C115.292 80.516 118.125 70.5891 118.125 60H103.125Z" fill="#FF6464"/>
<path d="M60 103.125V118.125C70.5891 118.125 80.516 115.292 89.0665 110.345L81.5655 97.3526C75.2215 101.023 67.8565 103.125 60 103.125Z" fill="#FF6464"/>
<path d="M38.4345 97.3526L30.9336 110.345C39.4841 115.292 49.411 118.125 60.0001 118.125V103.125C52.1436 103.125 44.7786 101.023 38.4345 97.3526Z" fill="#EFF2FA"/>
<path d="M92.7429 46.4794C91.5764 43.6582 89.9986 40.9472 88.0531 38.422L87.2583 37.3905L92.5988 34.3073L93.2053 35.1145C95.2568 37.8448 96.9368 40.7191 98.1987 43.657L98.5983 44.5875L93.2398 47.6812L92.7429 46.4794Z" fill="#EFF2FA"/>
<path d="M92.2941 35.7991L88.9557 37.7264C90.9092 40.2621 92.5555 43.0437 93.796 46.0439L97.1511 44.1068C95.8723 41.1288 94.2172 38.3588 92.2941 35.7991Z" fill="#EFF2FA"/>
<path d="M81.5779 31.9472C79.0528 30.0016 76.3418 28.4238 73.5206 27.2573L72.3187 26.7605L75.4125 21.402L76.3429 21.8016C79.2811 23.0634 82.155 24.7434 84.8854 26.7949L85.6926 27.4015L82.6097 32.742L81.5779 31.9472Z" fill="#EFF2FA"/>
<path d="M73.9561 26.2041C76.9563 27.4446 79.7379 29.0906 82.2736 31.0444L84.2008 27.7059C81.6412 25.7829 78.8709 24.1277 75.8932 22.8487L73.9561 26.2041Z" fill="#EFF2FA"/>
<path d="M64.6627 24.9145C62.888 24.6806 61.4066 24.5716 60.0001 24.5716C58.5936 24.5716 57.1121 24.6806 55.3374 24.9145L54.0486 25.0845V18.8848L55.0534 18.7648C56.8691 18.548 58.4872 18.4427 59.9998 18.4427C61.5125 18.4427 63.1306 18.548 64.9463 18.7648L65.9511 18.8848V25.0842L64.6627 24.9145Z" fill="#EFF2FA"/>
<path d="M55.1885 19.8966V23.7846C56.7668 23.5765 58.365 23.4321 60 23.4321C61.635 23.4321 63.2332 23.5767 64.8114 23.7846V19.8966C63.2306 19.7079 61.6307 19.5827 60 19.5827C58.3692 19.5827 56.7693 19.7079 55.1885 19.8966Z" fill="#EFF2FA"/>
<path d="M94.9158 65.9515L95.0857 64.6627C95.3196 62.888 95.4284 61.4065 95.4284 60C95.4284 58.5935 95.3194 57.112 95.0857 55.3373L94.9158 54.0485H101.115L101.235 55.0533C101.452 56.869 101.557 58.4869 101.557 59.9998C101.557 61.5131 101.452 63.131 101.235 64.9465L101.115 65.9513H94.9158V65.9515V65.9515Z" fill="#EFF2FA"/>
<path d="M96.5682 60C96.5682 61.6352 96.4236 63.2332 96.2157 64.8117H100.104C100.292 63.2306 100.418 61.631 100.418 60C100.418 58.3692 100.292 56.7694 100.104 55.1885H96.2157C96.4236 56.7668 96.5682 58.3648 96.5682 60Z" fill="#EFF2FA"/>
<path d="M18.885 65.9515L18.765 64.9467C18.5485 63.1312 18.443 61.5134 18.443 60C18.443 58.4871 18.5482 56.8692 18.765 55.0535L18.8848 54.0488H25.0845L24.9146 55.3376C24.6806 57.1123 24.5717 58.5938 24.5717 60.0002C24.5717 61.4067 24.6806 62.8882 24.9146 64.6629L25.0845 65.9517H18.885V65.9515Z" fill="#EFF2FA"/>
<path d="M23.4319 60C23.4319 58.3648 23.5765 56.7668 23.7844 55.1885H19.8966C19.7079 56.7694 19.5828 58.3692 19.5828 60C19.5828 61.631 19.7079 63.2306 19.8968 64.8117H23.7846C23.5765 63.2332 23.4319 61.6352 23.4319 60Z" fill="#EFF2FA"/>
<path d="M34.3071 27.4013L35.1143 26.7947C37.8446 24.7434 40.7187 23.0632 43.6568 21.8013L44.5873 21.4017L47.681 26.7602L46.4792 27.2571C43.658 28.4236 40.947 30.0014 38.4218 31.947L37.3901 32.7417L34.3071 27.4013Z" fill="#EFF2FA"/>
<path d="M37.7265 31.0444C40.2622 29.0909 43.0437 27.4446 46.044 26.2041L44.1069 22.849C41.1289 24.128 38.3588 25.7831 35.7992 27.7062L37.7265 31.0444Z" fill="#EFF2FA"/>
<path d="M87.2583 82.6097L88.0531 81.5782C89.9986 79.053 91.5764 76.342 92.7429 73.5209L93.2398 72.319L98.5983 75.4127L98.1987 76.3432C96.937 79.2806 95.2571 82.1548 93.2053 84.8855L92.5988 85.6927L87.2583 82.6097Z" fill="#EFF2FA"/>
<path d="M97.1512 75.8934L93.7961 73.9563C92.5556 76.9566 90.9096 79.7379 88.9561 82.2738L92.2943 84.2011C94.2171 81.6413 95.8725 78.8712 97.1512 75.8934Z" fill="#EFF2FA"/>
<path d="M60.0001 101.557C58.4872 101.557 56.8693 101.452 55.0536 101.235L54.0488 101.115V94.916L55.3377 95.0859C57.1123 95.3199 58.5938 95.4286 60.0003 95.4286C61.4068 95.4286 62.8883 95.3196 64.663 95.0859L65.9518 94.916V101.115L64.947 101.235C63.1309 101.452 61.513 101.557 60.0001 101.557Z" fill="#EFF2FA"/>
<path d="M64.8114 100.103V96.2156C63.2332 96.4237 61.635 96.5684 60 96.5684C58.365 96.5684 56.7668 96.4237 55.1885 96.2156V100.104C56.7693 100.292 58.3692 100.417 60 100.417C61.6307 100.417 63.2306 100.292 64.8114 100.103Z" fill="#EFF2FA"/>
<path d="M72.319 93.2395L73.5208 92.7427C76.342 91.5762 79.053 89.9984 81.5782 88.0528L82.6099 87.258L85.6929 92.5983L84.8857 93.2048C82.1552 95.2563 79.2811 96.9363 76.3432 98.1982L75.4127 98.5978L72.319 93.2395Z" fill="#EFF2FA"/>
<path d="M82.2736 88.9559C79.7379 90.9094 76.9563 92.5554 73.9561 93.7959L75.8932 97.151C78.8709 95.872 81.6412 94.2169 84.2008 92.2936L82.2736 88.9559Z" fill="#EFF2FA"/>
<path d="M43.6571 98.1984C40.7192 96.9366 37.845 95.2566 35.1146 93.2051L34.3074 92.5985L37.3903 87.2583L38.4221 88.053C40.9472 89.9986 43.6582 91.5764 46.4794 92.7429L47.6813 93.2398L44.5875 98.5983L43.6571 98.1984Z" fill="#EFF2FA"/>
<path d="M46.044 93.7959C43.0437 92.5554 40.2622 90.9094 37.7265 88.9559L35.7992 92.2938C38.3588 94.2171 41.1291 95.8723 44.1069 97.1512L46.044 93.7959Z" fill="#EFF2FA"/>
<path d="M26.7947 84.8855C24.743 82.1548 23.063 79.2806 21.8013 76.3432L21.4017 75.4127L26.7602 72.319L27.2571 73.5209C28.4236 76.342 30.0014 79.053 31.947 81.5782L32.7417 82.6097L27.4013 85.6927L26.7947 84.8855Z" fill="#EFF2FA"/>
<path d="M31.0442 82.2736C29.0906 79.7379 27.4446 76.9563 26.2041 73.9561L22.849 75.8932C24.1277 78.8709 25.7831 81.641 27.7062 84.2006L31.0442 82.2736Z" fill="#EFF2FA"/>
<path d="M21.402 44.5875L21.8016 43.657C23.0635 40.7191 24.7435 37.845 26.7949 35.1145L27.4015 34.3073L32.742 37.3905L31.9472 38.422C30.0017 40.9472 28.4239 43.6582 27.2574 46.4794L26.7605 47.6812L21.402 44.5875Z" fill="#EFF2FA"/>
<path d="M22.8488 44.1066L26.2038 46.0437C27.4444 43.0434 29.0904 40.2619 31.0439 37.7262L27.7057 35.7989C25.7829 38.3587 24.1277 41.1288 22.8488 44.1066Z" fill="#EFF2FA"/>
<path d="M102.427 17.5734C91.0938 6.24094 76.0266 0 60 0C43.9734 0 28.9062 6.24094 17.5734 17.5734C6.2407 28.9059 0 43.9734 0 60C0 76.0266 6.24094 91.0941 17.5734 102.427C28.9062 113.759 43.9734 120 60 120C76.0266 120 91.0938 113.759 102.427 102.427C113.759 91.0941 120 76.0266 120 60C120 43.9734 113.759 28.9062 102.427 17.5734ZM109.615 86.4799L99.8672 80.8523C102.869 75.1359 104.677 68.6995 104.958 61.875H116.216C115.923 70.7454 113.569 79.1018 109.615 86.4799ZM58.125 104.958V116.216C49.2546 115.923 40.8982 113.569 33.5201 109.615L39.1479 99.8672C44.8641 102.869 51.3005 104.677 58.125 104.958ZM61.875 104.958C68.6995 104.677 75.1359 102.869 80.8523 99.8672L86.4802 109.615C79.102 113.569 70.7454 115.924 61.8752 116.216L61.875 104.958ZM60 101.25C37.2546 101.25 18.75 82.7454 18.75 60C18.75 37.2546 37.2546 18.75 60 18.75C82.7454 18.75 101.25 37.2546 101.25 60C101.25 82.7454 82.7454 101.25 60 101.25ZM3.78445 61.875H15.042C15.3232 68.6995 17.1309 75.1359 20.1328 80.8523L10.3852 86.4802C6.43148 79.1018 4.07672 70.7454 3.78445 61.875ZM10.3854 33.5201L20.1328 39.1477C17.1309 44.8641 15.3232 51.3005 15.042 58.125H3.78445C4.07672 49.2546 6.43148 40.8982 10.3854 33.5201ZM61.875 15.042V3.78445C70.7454 4.07648 79.1018 6.43125 86.4799 10.3852L80.8523 20.1328C75.1359 17.1309 68.6995 15.3232 61.875 15.042ZM58.125 15.042C51.3005 15.3232 44.8641 17.1309 39.1477 20.1328L33.5198 10.3852C40.898 6.43125 49.2546 4.07648 58.1248 3.78445L58.125 15.042ZM104.958 58.125C104.677 51.3005 102.869 44.8641 99.8672 39.1477L109.615 33.5198C113.569 40.898 115.924 49.2546 116.216 58.1248L104.958 58.125ZM107.734 30.2761L97.988 35.9027C94.433 30.3183 89.682 25.567 84.0973 22.012L89.7239 12.2665C97.0087 16.8192 103.181 22.9912 107.734 30.2761ZM30.2761 12.2665L35.9027 22.012C30.3183 25.567 25.567 30.318 22.012 35.9027L12.2665 30.2761C16.8192 22.9912 22.9912 16.8192 30.2761 12.2665ZM12.2665 89.7239L22.012 84.0973C25.567 89.6817 30.318 94.433 35.9027 97.988L30.2761 107.734C22.9912 103.181 16.8192 97.0087 12.2665 89.7239ZM89.7239 107.734L84.0973 97.988C89.6817 94.433 94.433 89.682 97.988 84.0973L107.734 89.7239C103.181 97.0087 97.0087 103.181 89.7239 107.734Z" fill="#2D2B29"/>
<path d="M84.8674 37.1815C85.2373 37.5844 85.7424 37.7885 86.2491 37.7885C86.7021 37.7885 87.1566 37.6252 87.5166 37.2949C88.2795 36.5946 88.3301 35.4084 87.6298 34.6455C86.9065 33.8578 86.1406 33.0919 85.3531 32.3691C84.5904 31.669 83.4042 31.7196 82.7039 32.4825C82.0036 33.2454 82.0545 34.4313 82.8174 35.1316C83.5263 35.7823 84.2161 36.472 84.8674 37.1815Z" fill="#2D2B29"/>
<path d="M26.25 60C26.25 41.3902 41.3902 26.25 60 26.25C65.5779 26.25 71.104 27.6387 75.9813 30.2658C76.893 30.7568 78.0302 30.416 78.5212 29.5043C79.0123 28.5923 78.6712 27.4554 77.7595 26.9641C72.3377 24.0436 66.1966 22.5 60 22.5C39.3225 22.5 22.5 39.3225 22.5 60C22.5 68.6119 25.492 77.0234 30.9251 83.685C31.2959 84.1395 31.8352 84.375 32.3794 84.375C32.7959 84.375 33.2152 84.2367 33.5632 83.9529C34.3657 83.2985 34.4857 82.1173 33.8313 81.3148C28.9423 75.3206 26.25 67.7508 26.25 60Z" fill="#2D2B29"/>
<path d="M93.0321 42.2334C92.5406 41.3217 91.4037 40.9812 90.4919 41.4724C89.5805 41.9637 89.2397 43.1009 89.7309 44.0123C92.3601 48.8911 93.75 54.4195 93.75 60C93.75 78.6098 78.6098 93.75 60 93.75C52.249 93.75 44.6789 91.0575 38.6845 86.1682C37.8823 85.5138 36.7012 85.6336 36.0464 86.4363C35.392 87.2388 35.5118 88.4198 36.3145 89.0745C42.9762 94.5077 51.3876 97.5 60 97.5C80.6775 97.5 97.5 80.6775 97.5 60C97.5 53.8005 95.955 47.6569 93.0321 42.2334Z" fill="#2D2B29"/>
<path d="M46.7266 63.125C46.7266 62.8594 46.6849 62.625 46.6016 62.4219C46.5234 62.2135 46.3828 62.026 46.1797 61.8594C45.9818 61.6927 45.7057 61.5339 45.3516 61.3828C45.0026 61.2318 44.5599 61.0781 44.0234 60.9219C43.4609 60.7552 42.9531 60.5703 42.5 60.3672C42.0469 60.1589 41.6589 59.9219 41.3359 59.6562C41.013 59.3906 40.7656 59.0859 40.5938 58.7422C40.4219 58.3984 40.3359 58.0052 40.3359 57.5625C40.3359 57.1198 40.4271 56.7109 40.6094 56.3359C40.7917 55.9609 41.0521 55.6354 41.3906 55.3594C41.7344 55.0781 42.1432 54.8594 42.6172 54.7031C43.0911 54.5469 43.6198 54.4688 44.2031 54.4688C45.0573 54.4688 45.7812 54.6328 46.375 54.9609C46.974 55.2839 47.4297 55.7083 47.7422 56.2344C48.0547 56.7552 48.2109 57.3125 48.2109 57.9062H46.7109C46.7109 57.4792 46.6198 57.1016 46.4375 56.7734C46.2552 56.4401 45.9792 56.1797 45.6094 55.9922C45.2396 55.7995 44.7708 55.7031 44.2031 55.7031C43.6667 55.7031 43.224 55.7839 42.875 55.9453C42.526 56.1068 42.2656 56.3255 42.0938 56.6016C41.9271 56.8776 41.8438 57.1927 41.8438 57.5469C41.8438 57.7865 41.8932 58.0052 41.9922 58.2031C42.0964 58.3958 42.2552 58.5755 42.4688 58.7422C42.6875 58.9089 42.9635 59.0625 43.2969 59.2031C43.6354 59.3438 44.0391 59.4792 44.5078 59.6094C45.1536 59.7917 45.7109 59.9948 46.1797 60.2188C46.6484 60.4427 47.0339 60.6953 47.3359 60.9766C47.6432 61.2526 47.8698 61.5677 48.0156 61.9219C48.1667 62.2708 48.2422 62.6667 48.2422 63.1094C48.2422 63.5729 48.1484 63.9922 47.9609 64.3672C47.7734 64.7422 47.5052 65.0625 47.1562 65.3281C46.8073 65.5938 46.388 65.7995 45.8984 65.9453C45.4141 66.0859 44.8724 66.1562 44.2734 66.1562C43.7474 66.1562 43.2292 66.0833 42.7188 65.9375C42.2135 65.7917 41.7526 65.5729 41.3359 65.2812C40.9245 64.9896 40.5938 64.6302 40.3438 64.2031C40.099 63.7708 39.9766 63.2708 39.9766 62.7031H41.4766C41.4766 63.0938 41.5521 63.4297 41.7031 63.7109C41.8542 63.987 42.0599 64.2161 42.3203 64.3984C42.5859 64.5807 42.8854 64.7161 43.2188 64.8047C43.5573 64.888 43.9089 64.9297 44.2734 64.9297C44.7995 64.9297 45.2448 64.8568 45.6094 64.7109C45.974 64.5651 46.25 64.3568 46.4375 64.0859C46.6302 63.8151 46.7266 63.4948 46.7266 63.125ZM53.4844 57.5469V58.6562H48.9141V57.5469H53.4844ZM50.4609 55.4922H51.9062V63.9062C51.9062 64.1927 51.9505 64.4089 52.0391 64.5547C52.1276 64.7005 52.2422 64.7969 52.3828 64.8438C52.5234 64.8906 52.6745 64.9141 52.8359 64.9141C52.9557 64.9141 53.0807 64.9036 53.2109 64.8828C53.3464 64.8568 53.4479 64.8359 53.5156 64.8203L53.5234 66C53.4089 66.0365 53.2578 66.0703 53.0703 66.1016C52.888 66.138 52.6667 66.1562 52.4062 66.1562C52.0521 66.1562 51.7266 66.0859 51.4297 65.9453C51.1328 65.8047 50.8958 65.5703 50.7188 65.2422C50.5469 64.9089 50.4609 64.4609 50.4609 63.8984V55.4922ZM60.1641 64.5547V60.2031C60.1641 59.8698 60.0964 59.5807 59.9609 59.3359C59.8307 59.0859 59.6328 58.8932 59.3672 58.7578C59.1016 58.6224 58.7734 58.5547 58.3828 58.5547C58.0182 58.5547 57.6979 58.6172 57.4219 58.7422C57.151 58.8672 56.9375 59.0312 56.7812 59.2344C56.6302 59.4375 56.5547 59.6562 56.5547 59.8906H55.1094C55.1094 59.5885 55.1875 59.2891 55.3438 58.9922C55.5 58.6953 55.724 58.4271 56.0156 58.1875C56.3125 57.9427 56.6667 57.75 57.0781 57.6094C57.4948 57.4635 57.9583 57.3906 58.4688 57.3906C59.0833 57.3906 59.625 57.4948 60.0938 57.7031C60.5677 57.9115 60.9375 58.2266 61.2031 58.6484C61.474 59.0651 61.6094 59.5885 61.6094 60.2188V64.1562C61.6094 64.4375 61.6328 64.737 61.6797 65.0547C61.7318 65.3724 61.8073 65.6458 61.9062 65.875V66H60.3984C60.3255 65.8333 60.2682 65.612 60.2266 65.3359C60.1849 65.0547 60.1641 64.7943 60.1641 64.5547ZM60.4141 60.875L60.4297 61.8906H58.9688C58.5573 61.8906 58.1901 61.9245 57.8672 61.9922C57.5443 62.0547 57.2734 62.151 57.0547 62.2812C56.8359 62.4115 56.6693 62.5755 56.5547 62.7734C56.4401 62.9661 56.3828 63.1927 56.3828 63.4531C56.3828 63.7188 56.4427 63.9609 56.5625 64.1797C56.6823 64.3984 56.862 64.5729 57.1016 64.7031C57.3464 64.8281 57.6458 64.8906 58 64.8906C58.4427 64.8906 58.8333 64.7969 59.1719 64.6094C59.5104 64.4219 59.7786 64.1927 59.9766 63.9219C60.1797 63.651 60.2891 63.388 60.3047 63.1328L60.9219 63.8281C60.8854 64.0469 60.7865 64.2891 60.625 64.5547C60.4635 64.8203 60.2474 65.0755 59.9766 65.3203C59.7109 65.5599 59.3932 65.7604 59.0234 65.9219C58.6589 66.0781 58.2474 66.1562 57.7891 66.1562C57.2161 66.1562 56.7135 66.0443 56.2812 65.8203C55.8542 65.5964 55.5208 65.2969 55.2812 64.9219C55.0469 64.5417 54.9297 64.1172 54.9297 63.6484C54.9297 63.1953 55.0182 62.7969 55.1953 62.4531C55.3724 62.1042 55.6276 61.8151 55.9609 61.5859C56.2943 61.3516 56.6953 61.1745 57.1641 61.0547C57.6328 60.9349 58.1562 60.875 58.7344 60.875H60.4141ZM65.3281 59.3516V66H63.8828V57.5469H65.25L65.3281 59.3516ZM64.9844 61.4531L64.3828 61.4297C64.388 60.8516 64.474 60.3177 64.6406 59.8281C64.8073 59.3333 65.0417 58.9036 65.3438 58.5391C65.6458 58.1745 66.0052 57.8932 66.4219 57.6953C66.8438 57.4922 67.3099 57.3906 67.8203 57.3906C68.237 57.3906 68.612 57.4479 68.9453 57.5625C69.2786 57.6719 69.5625 57.849 69.7969 58.0938C70.0365 58.3385 70.2188 58.6562 70.3438 59.0469C70.4688 59.4323 70.5312 59.9036 70.5312 60.4609V66H69.0781V60.4453C69.0781 60.0026 69.013 59.6484 68.8828 59.3828C68.7526 59.112 68.5625 58.9167 68.3125 58.7969C68.0625 58.6719 67.7552 58.6094 67.3906 58.6094C67.0312 58.6094 66.7031 58.6849 66.4062 58.8359C66.1146 58.987 65.862 59.1953 65.6484 59.4609C65.4401 59.7266 65.276 60.0312 65.1562 60.375C65.0417 60.7135 64.9844 61.0729 64.9844 61.4531ZM78.0547 64.3594V54H79.5078V66H78.1797L78.0547 64.3594ZM72.3672 61.8672V61.7031C72.3672 61.0573 72.4453 60.4714 72.6016 59.9453C72.763 59.4141 72.9896 58.9583 73.2812 58.5781C73.5781 58.1979 73.9297 57.9062 74.3359 57.7031C74.7474 57.4948 75.2057 57.3906 75.7109 57.3906C76.2422 57.3906 76.7057 57.4844 77.1016 57.6719C77.5026 57.8542 77.8411 58.1224 78.1172 58.4766C78.3984 58.8255 78.6198 59.2474 78.7812 59.7422C78.9427 60.237 79.0547 60.7969 79.1172 61.4219V62.1406C79.0599 62.7604 78.9479 63.3177 78.7812 63.8125C78.6198 64.3073 78.3984 64.7292 78.1172 65.0781C77.8411 65.4271 77.5026 65.6953 77.1016 65.8828C76.7005 66.0651 76.2318 66.1562 75.6953 66.1562C75.2005 66.1562 74.7474 66.0495 74.3359 65.8359C73.9297 65.6224 73.5781 65.3229 73.2812 64.9375C72.9896 64.5521 72.763 64.099 72.6016 63.5781C72.4453 63.0521 72.3672 62.4818 72.3672 61.8672ZM73.8203 61.7031V61.8672C73.8203 62.2891 73.862 62.6849 73.9453 63.0547C74.0339 63.4245 74.1693 63.75 74.3516 64.0312C74.5339 64.3125 74.7656 64.5339 75.0469 64.6953C75.3281 64.8516 75.6641 64.9297 76.0547 64.9297C76.5339 64.9297 76.9271 64.8281 77.2344 64.625C77.5469 64.4219 77.7969 64.1536 77.9844 63.8203C78.1719 63.487 78.3177 63.125 78.4219 62.7344V60.8516C78.3594 60.5651 78.2682 60.2891 78.1484 60.0234C78.0339 59.7526 77.8828 59.513 77.6953 59.3047C77.513 59.0911 77.2865 58.9219 77.0156 58.7969C76.75 58.6719 76.4349 58.6094 76.0703 58.6094C75.6745 58.6094 75.3333 58.6927 75.0469 58.8594C74.7656 59.0208 74.5339 59.2448 74.3516 59.5312C74.1693 59.8125 74.0339 60.1406 73.9453 60.5156C73.862 60.8854 73.8203 61.2812 73.8203 61.7031Z" fill="black"/>
</g>
<defs>
<clipPath id="clip0_7_541">
<rect width="120" height="120" fill="white"/>
</clipPath>
</defs>
</svg>
