<svg width="120" height="120" viewBox="0 0 120 120" fill="none" xmlns="http://www.w3.org/2000/svg">
<g clip-path="url(#clip0_6_2)">
<path d="M60 118.125C92.1015 118.125 118.125 92.1015 118.125 60C118.125 27.8984 92.1015 1.875 60 1.875C27.8984 1.875 1.875 27.8984 1.875 60C1.875 92.1015 27.8984 118.125 60 118.125Z" fill="#515262"/>
<path d="M60 117.656C91.8427 117.656 117.656 91.8427 117.656 60C117.656 28.1573 91.8427 2.34375 60 2.34375C28.1573 2.34375 2.34375 28.1573 2.34375 60C2.34375 91.8427 28.1573 117.656 60 117.656Z" fill="#FF6464"/>
<path d="M60 95.3906C79.5457 95.3906 95.3906 79.5457 95.3906 60C95.3906 40.4543 79.5457 24.6094 60 24.6094C40.4543 24.6094 24.6094 40.4543 24.6094 60C24.6094 79.5457 40.4543 95.3906 60 95.3906Z" fill="#EFF2FA"/>
<path d="M22.6474 38.4345L9.65531 30.9335C4.70813 39.484 1.875 49.4109 1.875 60H16.875C16.875 52.1435 18.9769 44.7785 22.6474 38.4345Z" fill="#FF6464"/>
<path d="M38.4344 22.6474L30.9335 9.65508C22.1132 14.7588 14.7588 22.1133 9.65527 30.9335L22.6474 38.4344C26.4339 31.8902 31.8902 26.434 38.4344 22.6474Z" fill="#EFF2FA"/>
<path d="M60 16.875V1.875C49.4107 1.875 39.4839 4.70789 30.9335 9.65531L38.4344 22.6477C44.7785 18.9771 52.1435 16.875 60 16.875Z" fill="#FF6464"/>
<path d="M103.125 60H118.125C118.125 49.4109 115.292 39.484 110.345 30.9335L97.3525 38.4345C101.023 44.7785 103.125 52.1435 103.125 60Z" fill="#EFF2FA"/>
<path d="M97.3526 38.4345L110.345 30.9335C105.241 22.1133 97.887 14.7588 89.0665 9.65532L81.5656 22.6474C88.1098 26.434 93.566 31.8902 97.3526 38.4345Z" fill="#FF6464"/>
<path d="M81.5655 22.6474L89.0665 9.65531C80.516 4.70812 70.5891 1.875 60 1.875V16.875C67.8565 16.875 75.2215 18.9771 81.5655 22.6474Z" fill="#EFF2FA"/>
<path d="M16.875 60H1.875C1.875 70.5891 4.70813 80.516 9.65531 89.0667L22.6474 81.5655C18.9769 75.2215 16.875 67.8565 16.875 60Z" fill="#EFF2FA"/>
<path d="M81.5656 97.3526L89.0665 110.345C97.8867 105.241 105.241 97.887 110.345 89.0667L97.3526 81.5656C93.566 88.1098 88.1098 93.566 81.5656 97.3526Z" fill="#EFF2FA"/>
<path d="M22.6474 81.5655L9.65527 89.0667C14.7586 97.887 22.113 105.241 30.9335 110.345L38.4344 97.3526C31.8902 93.566 26.4339 88.1098 22.6474 81.5655Z" fill="#FF6464"/>
<path d="M103.125 60C103.125 67.8565 101.023 75.2215 97.3525 81.5655L110.345 89.0667C115.292 80.516 118.125 70.5891 118.125 60H103.125Z" fill="#FF6464"/>
<path d="M60 103.125V118.125C70.5891 118.125 80.516 115.292 89.0665 110.345L81.5655 97.3526C75.2215 101.023 67.8565 103.125 60 103.125Z" fill="#FF6464"/>
<path d="M38.4345 97.3526L30.9336 110.345C39.4841 115.292 49.411 118.125 60.0001 118.125V103.125C52.1436 103.125 44.7786 101.023 38.4345 97.3526Z" fill="#EFF2FA"/>
<path d="M92.7429 46.4794C91.5764 43.6582 89.9986 40.9472 88.0531 38.422L87.2583 37.3905L92.5988 34.3073L93.2053 35.1145C95.2568 37.8448 96.9368 40.7191 98.1987 43.657L98.5983 44.5875L93.2398 47.6812L92.7429 46.4794Z" fill="#EFF2FA"/>
<path d="M92.2941 35.7991L88.9557 37.7264C90.9092 40.2621 92.5555 43.0437 93.796 46.0439L97.1511 44.1068C95.8723 41.1288 94.2172 38.3587 92.2941 35.7991Z" fill="#EFF2FA"/>
<path d="M81.5779 31.9472C79.0528 30.0016 76.3418 28.4238 73.5206 27.2573L72.3187 26.7605L75.4125 21.4019L76.3429 21.8016C79.2811 23.0634 82.155 24.7434 84.8854 26.7949L85.6926 27.4015L82.6097 32.7419L81.5779 31.9472Z" fill="#EFF2FA"/>
<path d="M73.9561 26.2041C76.9563 27.4446 79.7379 29.0906 82.2736 31.0444L84.2008 27.7059C81.6412 25.7829 78.8709 24.1277 75.8932 22.8488L73.9561 26.2041Z" fill="#EFF2FA"/>
<path d="M64.6627 24.9145C62.888 24.6806 61.4066 24.5716 60.0001 24.5716C58.5936 24.5716 57.1121 24.6806 55.3374 24.9145L54.0486 25.0845V18.8848L55.0534 18.7648C56.8691 18.548 58.4872 18.4427 59.9998 18.4427C61.5125 18.4427 63.1306 18.548 64.9463 18.7648L65.9511 18.8848V25.0842L64.6627 24.9145Z" fill="#EFF2FA"/>
<path d="M55.1885 19.8966V23.7846C56.7668 23.5765 58.365 23.4321 60 23.4321C61.635 23.4321 63.2332 23.5767 64.8114 23.7846V19.8966C63.2306 19.7079 61.6307 19.5827 60 19.5827C58.3692 19.5827 56.7693 19.7079 55.1885 19.8966Z" fill="#EFF2FA"/>
<path d="M94.9158 65.9515L95.0857 64.6627C95.3196 62.888 95.4284 61.4065 95.4284 60C95.4284 58.5935 95.3194 57.112 95.0857 55.3373L94.9158 54.0485H101.115L101.235 55.0533C101.452 56.869 101.557 58.4869 101.557 59.9998C101.557 61.5131 101.452 63.131 101.235 64.9465L101.115 65.9513H94.9158V65.9515V65.9515Z" fill="#EFF2FA"/>
<path d="M96.5682 60C96.5682 61.6352 96.4236 63.2332 96.2157 64.8117H100.104C100.292 63.2306 100.418 61.631 100.418 60C100.418 58.3692 100.292 56.7694 100.104 55.1885H96.2157C96.4236 56.7668 96.5682 58.3648 96.5682 60Z" fill="#EFF2FA"/>
<path d="M18.885 65.9515L18.765 64.9467C18.5485 63.1312 18.443 61.5134 18.443 60C18.443 58.4871 18.5482 56.8692 18.765 55.0535L18.8848 54.0488H25.0845L24.9146 55.3376C24.6806 57.1123 24.5717 58.5938 24.5717 60.0002C24.5717 61.4067 24.6806 62.8882 24.9146 64.6629L25.0845 65.9517H18.885V65.9515Z" fill="#EFF2FA"/>
<path d="M23.4319 60C23.4319 58.3648 23.5765 56.7668 23.7844 55.1885H19.8966C19.7079 56.7694 19.5828 58.3692 19.5828 60C19.5828 61.631 19.7079 63.2306 19.8968 64.8117H23.7846C23.5765 63.2332 23.4319 61.6352 23.4319 60Z" fill="#EFF2FA"/>
<path d="M34.3071 27.4012L35.1143 26.7947C37.8446 24.7434 40.7187 23.0632 43.6568 21.8013L44.5873 21.4017L47.681 26.7602L46.4792 27.2571C43.658 28.4236 40.947 30.0014 38.4218 31.947L37.3901 32.7417L34.3071 27.4012Z" fill="#EFF2FA"/>
<path d="M37.7265 31.0444C40.2622 29.0909 43.0437 27.4446 46.044 26.2041L44.1069 22.849C41.1289 24.128 38.3588 25.7831 35.7992 27.7062L37.7265 31.0444Z" fill="#EFF2FA"/>
<path d="M87.2583 82.6097L88.0531 81.5782C89.9986 79.053 91.5764 76.342 92.7429 73.5209L93.2398 72.319L98.5983 75.4127L98.1987 76.3432C96.937 79.2806 95.2571 82.1548 93.2053 84.8855L92.5988 85.6927L87.2583 82.6097Z" fill="#EFF2FA"/>
<path d="M97.1512 75.8934L93.7961 73.9563C92.5556 76.9566 90.9096 79.7379 88.9561 82.2738L92.2943 84.2011C94.2171 81.6413 95.8725 78.8712 97.1512 75.8934Z" fill="#EFF2FA"/>
<path d="M60.0001 101.557C58.4872 101.557 56.8693 101.452 55.0536 101.235L54.0488 101.115V94.916L55.3377 95.0859C57.1123 95.3199 58.5938 95.4286 60.0003 95.4286C61.4068 95.4286 62.8883 95.3196 64.663 95.0859L65.9518 94.916V101.115L64.947 101.235C63.1309 101.452 61.513 101.557 60.0001 101.557Z" fill="#EFF2FA"/>
<path d="M64.8114 100.103V96.2156C63.2332 96.4237 61.635 96.5684 60 96.5684C58.365 96.5684 56.7668 96.4237 55.1885 96.2156V100.104C56.7693 100.292 58.3692 100.417 60 100.417C61.6307 100.417 63.2306 100.292 64.8114 100.103Z" fill="#EFF2FA"/>
<path d="M72.319 93.2395L73.5208 92.7427C76.342 91.5762 79.053 89.9984 81.5782 88.0528L82.6099 87.258L85.6929 92.5983L84.8857 93.2048C82.1552 95.2563 79.2811 96.9363 76.3432 98.1982L75.4127 98.5978L72.319 93.2395Z" fill="#EFF2FA"/>
<path d="M82.2736 88.9559C79.7379 90.9094 76.9563 92.5554 73.9561 93.7959L75.8932 97.151C78.8709 95.872 81.6412 94.2169 84.2008 92.2936L82.2736 88.9559Z" fill="#EFF2FA"/>
<path d="M43.6571 98.1984C40.7192 96.9366 37.845 95.2566 35.1146 93.2051L34.3074 92.5985L37.3903 87.2583L38.4221 88.053C40.9472 89.9986 43.6582 91.5764 46.4794 92.7429L47.6813 93.2398L44.5875 98.5983L43.6571 98.1984Z" fill="#EFF2FA"/>
<path d="M46.044 93.7959C43.0437 92.5554 40.2622 90.9094 37.7265 88.9559L35.7992 92.2938C38.3588 94.2171 41.1291 95.8723 44.1069 97.1512L46.044 93.7959Z" fill="#EFF2FA"/>
<path d="M26.7947 84.8855C24.743 82.1548 23.063 79.2806 21.8013 76.3432L21.4017 75.4127L26.7602 72.319L27.2571 73.5209C28.4236 76.342 30.0014 79.053 31.947 81.5782L32.7417 82.6097L27.4013 85.6927L26.7947 84.8855Z" fill="#EFF2FA"/>
<path d="M31.0442 82.2736C29.0906 79.7379 27.4446 76.9563 26.2041 73.9561L22.849 75.8932C24.1277 78.8709 25.7831 81.641 27.7062 84.2006L31.0442 82.2736Z" fill="#EFF2FA"/>
<path d="M21.402 44.5875L21.8016 43.657C23.0635 40.7191 24.7435 37.845 26.7949 35.1145L27.4015 34.3073L32.742 37.3905L31.9472 38.422C30.0017 40.9472 28.4239 43.6582 27.2574 46.4794L26.7605 47.6812L21.402 44.5875Z" fill="#EFF2FA"/>
<path d="M22.8488 44.1066L26.2038 46.0437C27.4444 43.0434 29.0904 40.2619 31.0439 37.7262L27.7057 35.7989C25.7829 38.3587 24.1277 41.1288 22.8488 44.1066Z" fill="#EFF2FA"/>
<path d="M102.427 17.5734C91.0938 6.24094 76.0266 0 60 0C43.9734 0 28.9062 6.24094 17.5734 17.5734C6.2407 28.9059 0 43.9734 0 60C0 76.0266 6.24094 91.0941 17.5734 102.427C28.9062 113.759 43.9734 120 60 120C76.0266 120 91.0938 113.759 102.427 102.427C113.759 91.0941 120 76.0266 120 60C120 43.9734 113.759 28.9062 102.427 17.5734ZM109.615 86.4799L99.8672 80.8523C102.869 75.1359 104.677 68.6995 104.958 61.875H116.216C115.923 70.7454 113.569 79.1018 109.615 86.4799ZM58.125 104.958V116.216C49.2546 115.923 40.8982 113.569 33.5201 109.615L39.1479 99.8672C44.8641 102.869 51.3005 104.677 58.125 104.958ZM61.875 104.958C68.6995 104.677 75.1359 102.869 80.8523 99.8672L86.4802 109.615C79.102 113.569 70.7454 115.924 61.8752 116.216L61.875 104.958ZM60 101.25C37.2546 101.25 18.75 82.7454 18.75 60C18.75 37.2546 37.2546 18.75 60 18.75C82.7454 18.75 101.25 37.2546 101.25 60C101.25 82.7454 82.7454 101.25 60 101.25ZM3.78445 61.875H15.042C15.3232 68.6995 17.1309 75.1359 20.1328 80.8523L10.3852 86.4802C6.43148 79.1018 4.07672 70.7454 3.78445 61.875ZM10.3854 33.5201L20.1328 39.1477C17.1309 44.8641 15.3232 51.3005 15.042 58.125H3.78445C4.07672 49.2546 6.43148 40.8982 10.3854 33.5201ZM61.875 15.042V3.78445C70.7454 4.07648 79.1018 6.43125 86.4799 10.3852L80.8523 20.1328C75.1359 17.1309 68.6995 15.3232 61.875 15.042ZM58.125 15.042C51.3005 15.3232 44.8641 17.1309 39.1477 20.1328L33.5198 10.3852C40.898 6.43125 49.2546 4.07648 58.1248 3.78445L58.125 15.042ZM104.958 58.125C104.677 51.3005 102.869 44.8641 99.8672 39.1477L109.615 33.5198C113.569 40.898 115.924 49.2546 116.216 58.1248L104.958 58.125ZM107.734 30.2761L97.988 35.9027C94.433 30.3183 89.682 25.567 84.0973 22.012L89.7239 12.2665C97.0087 16.8192 103.181 22.9912 107.734 30.2761ZM30.2761 12.2665L35.9027 22.012C30.3183 25.567 25.567 30.318 22.012 35.9027L12.2665 30.2761C16.8192 22.9912 22.9912 16.8192 30.2761 12.2665ZM12.2665 89.7239L22.012 84.0973C25.567 89.6817 30.318 94.433 35.9027 97.988L30.2761 107.734C22.9912 103.181 16.8192 97.0087 12.2665 89.7239ZM89.7239 107.734L84.0973 97.988C89.6817 94.433 94.433 89.682 97.988 84.0973L107.734 89.7239C103.181 97.0087 97.0087 103.181 89.7239 107.734Z" fill="#2D2B29"/>
<path d="M84.8674 37.1815C85.2373 37.5844 85.7424 37.7885 86.2491 37.7885C86.7021 37.7885 87.1566 37.6252 87.5166 37.2949C88.2795 36.5946 88.3301 35.4084 87.6298 34.6455C86.9065 33.8578 86.1406 33.0919 85.3531 32.3691C84.5904 31.669 83.4042 31.7196 82.7039 32.4825C82.0036 33.2454 82.0545 34.4313 82.8174 35.1316C83.5263 35.7823 84.2161 36.472 84.8674 37.1815Z" fill="#2D2B29"/>
<path d="M26.25 60C26.25 41.3902 41.3902 26.25 60 26.25C65.5779 26.25 71.104 27.6387 75.9813 30.2658C76.893 30.7568 78.0302 30.416 78.5212 29.5043C79.0123 28.5923 78.6712 27.4554 77.7595 26.9641C72.3377 24.0436 66.1966 22.5 60 22.5C39.3225 22.5 22.5 39.3225 22.5 60C22.5 68.6119 25.492 77.0234 30.9251 83.685C31.2959 84.1395 31.8352 84.375 32.3794 84.375C32.7959 84.375 33.2152 84.2367 33.5632 83.9529C34.3657 83.2985 34.4857 82.1173 33.8313 81.3148C28.9423 75.3206 26.25 67.7508 26.25 60Z" fill="#2D2B29"/>
<path d="M93.0321 42.2334C92.5406 41.3217 91.4037 40.9812 90.4919 41.4724C89.5805 41.9637 89.2397 43.1009 89.7309 44.0123C92.3601 48.8911 93.75 54.4195 93.75 60C93.75 78.6098 78.6098 93.75 60 93.75C52.249 93.75 44.6789 91.0575 38.6845 86.1682C37.8823 85.5138 36.7012 85.6336 36.0464 86.4363C35.392 87.2388 35.5118 88.4198 36.3145 89.0745C42.9762 94.5077 51.3876 97.5 60 97.5C80.6775 97.5 97.5 80.6775 97.5 60C97.5 53.8005 95.955 47.6569 93.0321 42.2334Z" fill="#2D2B29"/>
<path d="M50.1406 53.125C50.1406 52.8594 50.099 52.625 50.0156 52.4219C49.9375 52.2135 49.7969 52.026 49.5938 51.8594C49.3958 51.6927 49.1198 51.5339 48.7656 51.3828C48.4167 51.2318 47.974 51.0781 47.4375 50.9219C46.875 50.7552 46.3672 50.5703 45.9141 50.3672C45.4609 50.1589 45.0729 49.9219 44.75 49.6562C44.4271 49.3906 44.1797 49.0859 44.0078 48.7422C43.8359 48.3984 43.75 48.0052 43.75 47.5625C43.75 47.1198 43.8411 46.7109 44.0234 46.3359C44.2057 45.9609 44.4661 45.6354 44.8047 45.3594C45.1484 45.0781 45.5573 44.8594 46.0312 44.7031C46.5052 44.5469 47.0339 44.4688 47.6172 44.4688C48.4714 44.4688 49.1953 44.6328 49.7891 44.9609C50.388 45.2839 50.8438 45.7083 51.1562 46.2344C51.4688 46.7552 51.625 47.3125 51.625 47.9062H50.125C50.125 47.4792 50.0339 47.1016 49.8516 46.7734C49.6693 46.4401 49.3932 46.1797 49.0234 45.9922C48.6536 45.7995 48.1849 45.7031 47.6172 45.7031C47.0807 45.7031 46.638 45.7839 46.2891 45.9453C45.9401 46.1068 45.6797 46.3255 45.5078 46.6016C45.3411 46.8776 45.2578 47.1927 45.2578 47.5469C45.2578 47.7865 45.3073 48.0052 45.4062 48.2031C45.5104 48.3958 45.6693 48.5755 45.8828 48.7422C46.1016 48.9089 46.3776 49.0625 46.7109 49.2031C47.0495 49.3438 47.4531 49.4792 47.9219 49.6094C48.5677 49.7917 49.125 49.9948 49.5938 50.2188C50.0625 50.4427 50.4479 50.6953 50.75 50.9766C51.0573 51.2526 51.2839 51.5677 51.4297 51.9219C51.5807 52.2708 51.6562 52.6667 51.6562 53.1094C51.6562 53.5729 51.5625 53.9922 51.375 54.3672C51.1875 54.7422 50.9193 55.0625 50.5703 55.3281C50.2214 55.5938 49.8021 55.7995 49.3125 55.9453C48.8281 56.0859 48.2865 56.1562 47.6875 56.1562C47.1615 56.1562 46.6432 56.0833 46.1328 55.9375C45.6276 55.7917 45.1667 55.5729 44.75 55.2812C44.3385 54.9896 44.0078 54.6302 43.7578 54.2031C43.513 53.7708 43.3906 53.2708 43.3906 52.7031H44.8906C44.8906 53.0938 44.9661 53.4297 45.1172 53.7109C45.2682 53.987 45.474 54.2161 45.7344 54.3984C46 54.5807 46.2995 54.7161 46.6328 54.8047C46.9714 54.888 47.3229 54.9297 47.6875 54.9297C48.2135 54.9297 48.6589 54.8568 49.0234 54.7109C49.388 54.5651 49.6641 54.3568 49.8516 54.0859C50.0443 53.8151 50.1406 53.4948 50.1406 53.125ZM56.8984 47.5469V48.6562H52.3281V47.5469H56.8984ZM53.875 45.4922H55.3203V53.9062C55.3203 54.1927 55.3646 54.4089 55.4531 54.5547C55.5417 54.7005 55.6562 54.7969 55.7969 54.8438C55.9375 54.8906 56.0885 54.9141 56.25 54.9141C56.3698 54.9141 56.4948 54.9036 56.625 54.8828C56.7604 54.8568 56.862 54.8359 56.9297 54.8203L56.9375 56C56.8229 56.0365 56.6719 56.0703 56.4844 56.1016C56.3021 56.138 56.0807 56.1562 55.8203 56.1562C55.4661 56.1562 55.1406 56.0859 54.8438 55.9453C54.5469 55.8047 54.3099 55.5703 54.1328 55.2422C53.9609 54.9089 53.875 54.4609 53.875 53.8984V45.4922ZM63.5781 54.5547V50.2031C63.5781 49.8698 63.5104 49.5807 63.375 49.3359C63.2448 49.0859 63.0469 48.8932 62.7812 48.7578C62.5156 48.6224 62.1875 48.5547 61.7969 48.5547C61.4323 48.5547 61.112 48.6172 60.8359 48.7422C60.5651 48.8672 60.3516 49.0312 60.1953 49.2344C60.0443 49.4375 59.9688 49.6562 59.9688 49.8906H58.5234C58.5234 49.5885 58.6016 49.2891 58.7578 48.9922C58.9141 48.6953 59.138 48.4271 59.4297 48.1875C59.7266 47.9427 60.0807 47.75 60.4922 47.6094C60.9089 47.4635 61.3724 47.3906 61.8828 47.3906C62.4974 47.3906 63.0391 47.4948 63.5078 47.7031C63.9818 47.9115 64.3516 48.2266 64.6172 48.6484C64.888 49.0651 65.0234 49.5885 65.0234 50.2188V54.1562C65.0234 54.4375 65.0469 54.737 65.0938 55.0547C65.1458 55.3724 65.2214 55.6458 65.3203 55.875V56H63.8125C63.7396 55.8333 63.6823 55.612 63.6406 55.3359C63.599 55.0547 63.5781 54.7943 63.5781 54.5547ZM63.8281 50.875L63.8438 51.8906H62.3828C61.9714 51.8906 61.6042 51.9245 61.2812 51.9922C60.9583 52.0547 60.6875 52.151 60.4688 52.2812C60.25 52.4115 60.0833 52.5755 59.9688 52.7734C59.8542 52.9661 59.7969 53.1927 59.7969 53.4531C59.7969 53.7188 59.8568 53.9609 59.9766 54.1797C60.0964 54.3984 60.276 54.5729 60.5156 54.7031C60.7604 54.8281 61.0599 54.8906 61.4141 54.8906C61.8568 54.8906 62.2474 54.7969 62.5859 54.6094C62.9245 54.4219 63.1927 54.1927 63.3906 53.9219C63.5938 53.651 63.7031 53.388 63.7188 53.1328L64.3359 53.8281C64.2995 54.0469 64.2005 54.2891 64.0391 54.5547C63.8776 54.8203 63.6615 55.0755 63.3906 55.3203C63.125 55.5599 62.8073 55.7604 62.4375 55.9219C62.0729 56.0781 61.6615 56.1562 61.2031 56.1562C60.6302 56.1562 60.1276 56.0443 59.6953 55.8203C59.2682 55.5964 58.9349 55.2969 58.6953 54.9219C58.4609 54.5417 58.3438 54.1172 58.3438 53.6484C58.3438 53.1953 58.4323 52.7969 58.6094 52.4531C58.7865 52.1042 59.0417 51.8151 59.375 51.5859C59.7083 51.3516 60.1094 51.1745 60.5781 51.0547C61.0469 50.9349 61.5703 50.875 62.1484 50.875H63.8281ZM68.7422 48.875V56H67.2969V47.5469H68.7031L68.7422 48.875ZM71.3828 47.5L71.375 48.8438C71.2552 48.8177 71.1406 48.8021 71.0312 48.7969C70.9271 48.7865 70.8073 48.7812 70.6719 48.7812C70.3385 48.7812 70.0443 48.8333 69.7891 48.9375C69.5339 49.0417 69.3177 49.1875 69.1406 49.375C68.9635 49.5625 68.8229 49.7865 68.7188 50.0469C68.6198 50.3021 68.5547 50.5833 68.5234 50.8906L68.1172 51.125C68.1172 50.6146 68.1667 50.1354 68.2656 49.6875C68.3698 49.2396 68.5286 48.8438 68.7422 48.5C68.9557 48.151 69.2266 47.8802 69.5547 47.6875C69.888 47.4896 70.2839 47.3906 70.7422 47.3906C70.8464 47.3906 70.9661 47.4036 71.1016 47.4297C71.237 47.4505 71.3307 47.474 71.3828 47.5ZM76.6484 47.5469V48.6562H72.0781V47.5469H76.6484ZM73.625 45.4922H75.0703V53.9062C75.0703 54.1927 75.1146 54.4089 75.2031 54.5547C75.2917 54.7005 75.4062 54.7969 75.5469 54.8438C75.6875 54.8906 75.8385 54.9141 76 54.9141C76.1198 54.9141 76.2448 54.9036 76.375 54.8828C76.5104 54.8568 76.612 54.8359 76.6797 54.8203L76.6875 56C76.5729 56.0365 76.4219 56.0703 76.2344 56.1016C76.0521 56.138 75.8307 56.1562 75.5703 56.1562C75.2161 56.1562 74.8906 56.0859 74.5938 55.9453C74.2969 55.8047 74.0599 55.5703 73.8828 55.2422C73.7109 54.9089 73.625 54.4609 73.625 53.8984V45.4922ZM48.6641 69.3359V73.5C48.5234 73.7083 48.2995 73.9427 47.9922 74.2031C47.6849 74.4583 47.2604 74.6823 46.7188 74.875C46.1823 75.0625 45.4896 75.1562 44.6406 75.1562C43.9479 75.1562 43.3099 75.0365 42.7266 74.7969C42.1484 74.5521 41.6458 74.1979 41.2188 73.7344C40.7969 73.2656 40.4688 72.6979 40.2344 72.0312C40.0052 71.3594 39.8906 70.599 39.8906 69.75V68.8672C39.8906 68.0182 39.9896 67.2604 40.1875 66.5938C40.3906 65.9271 40.6875 65.362 41.0781 64.8984C41.4688 64.4297 41.9479 64.0755 42.5156 63.8359C43.0833 63.5911 43.7344 63.4688 44.4688 63.4688C45.3385 63.4688 46.0651 63.6198 46.6484 63.9219C47.237 64.2188 47.6953 64.6302 48.0234 65.1562C48.3568 65.6823 48.5703 66.2812 48.6641 66.9531H47.1562C47.0885 66.5417 46.9531 66.1667 46.75 65.8281C46.5521 65.4896 46.2682 65.2188 45.8984 65.0156C45.5286 64.8073 45.0521 64.7031 44.4688 64.7031C43.9427 64.7031 43.487 64.7995 43.1016 64.9922C42.7161 65.1849 42.3984 65.4609 42.1484 65.8203C41.8984 66.1797 41.7109 66.6146 41.5859 67.125C41.4661 67.6354 41.4062 68.2109 41.4062 68.8516V69.75C41.4062 70.4062 41.4818 70.9922 41.6328 71.5078C41.7891 72.0234 42.0104 72.4635 42.2969 72.8281C42.5833 73.1875 42.9245 73.4609 43.3203 73.6484C43.7214 73.8359 44.1641 73.9297 44.6484 73.9297C45.1849 73.9297 45.6198 73.8854 45.9531 73.7969C46.2865 73.7031 46.5469 73.5938 46.7344 73.4688C46.9219 73.3385 47.0651 73.2161 47.1641 73.1016V70.5547H44.5312V69.3359H48.6641ZM55.9297 73.5547V69.2031C55.9297 68.8698 55.862 68.5807 55.7266 68.3359C55.5964 68.0859 55.3984 67.8932 55.1328 67.7578C54.8672 67.6224 54.5391 67.5547 54.1484 67.5547C53.7839 67.5547 53.4635 67.6172 53.1875 67.7422C52.9167 67.8672 52.7031 68.0312 52.5469 68.2344C52.3958 68.4375 52.3203 68.6562 52.3203 68.8906H50.875C50.875 68.5885 50.9531 68.2891 51.1094 67.9922C51.2656 67.6953 51.4896 67.4271 51.7812 67.1875C52.0781 66.9427 52.4323 66.75 52.8438 66.6094C53.2604 66.4635 53.724 66.3906 54.2344 66.3906C54.849 66.3906 55.3906 66.4948 55.8594 66.7031C56.3333 66.9115 56.7031 67.2266 56.9688 67.6484C57.2396 68.0651 57.375 68.5885 57.375 69.2188V73.1562C57.375 73.4375 57.3984 73.737 57.4453 74.0547C57.4974 74.3724 57.5729 74.6458 57.6719 74.875V75H56.1641C56.0911 74.8333 56.0339 74.612 55.9922 74.3359C55.9505 74.0547 55.9297 73.7943 55.9297 73.5547ZM56.1797 69.875L56.1953 70.8906H54.7344C54.3229 70.8906 53.9557 70.9245 53.6328 70.9922C53.3099 71.0547 53.0391 71.151 52.8203 71.2812C52.6016 71.4115 52.4349 71.5755 52.3203 71.7734C52.2057 71.9661 52.1484 72.1927 52.1484 72.4531C52.1484 72.7188 52.2083 72.9609 52.3281 73.1797C52.4479 73.3984 52.6276 73.5729 52.8672 73.7031C53.112 73.8281 53.4115 73.8906 53.7656 73.8906C54.2083 73.8906 54.599 73.7969 54.9375 73.6094C55.276 73.4219 55.5443 73.1927 55.7422 72.9219C55.9453 72.651 56.0547 72.388 56.0703 72.1328L56.6875 72.8281C56.651 73.0469 56.5521 73.2891 56.3906 73.5547C56.2292 73.8203 56.013 74.0755 55.7422 74.3203C55.4766 74.5599 55.1589 74.7604 54.7891 74.9219C54.4245 75.0781 54.013 75.1562 53.5547 75.1562C52.9818 75.1562 52.4792 75.0443 52.0469 74.8203C51.6198 74.5964 51.2865 74.2969 51.0469 73.9219C50.8125 73.5417 50.6953 73.1172 50.6953 72.6484C50.6953 72.1953 50.7839 71.7969 50.9609 71.4531C51.138 71.1042 51.3932 70.8151 51.7266 70.5859C52.0599 70.3516 52.4609 70.1745 52.9297 70.0547C53.3984 69.9349 53.9219 69.875 54.5 69.875H56.1797ZM61.0859 68.2266V75H59.6328V66.5469H61.0078L61.0859 68.2266ZM60.7891 70.4531L60.1172 70.4297C60.1224 69.8516 60.1979 69.3177 60.3438 68.8281C60.4896 68.3333 60.7057 67.9036 60.9922 67.5391C61.2786 67.1745 61.6354 66.8932 62.0625 66.6953C62.4896 66.4922 62.9844 66.3906 63.5469 66.3906C63.9427 66.3906 64.3073 66.4479 64.6406 66.5625C64.974 66.6719 65.263 66.8464 65.5078 67.0859C65.7526 67.3255 65.9427 67.6328 66.0781 68.0078C66.2135 68.3828 66.2812 68.8359 66.2812 69.3672V75H64.8359V69.4375C64.8359 68.9948 64.7604 68.6406 64.6094 68.375C64.4635 68.1094 64.2552 67.9167 63.9844 67.7969C63.7135 67.6719 63.3958 67.6094 63.0312 67.6094C62.6042 67.6094 62.2474 67.6849 61.9609 67.8359C61.6745 67.987 61.4453 68.1953 61.2734 68.4609C61.1016 68.7266 60.9766 69.0312 60.8984 69.375C60.8255 69.7135 60.7891 70.0729 60.7891 70.4531ZM66.2656 69.6562L65.2969 69.9531C65.3021 69.4896 65.3776 69.0443 65.5234 68.6172C65.6745 68.1901 65.8906 67.8099 66.1719 67.4766C66.4583 67.1432 66.8099 66.8802 67.2266 66.6875C67.6432 66.4896 68.1198 66.3906 68.6562 66.3906C69.1094 66.3906 69.5104 66.4505 69.8594 66.5703C70.2135 66.6901 70.5104 66.875 70.75 67.125C70.9948 67.3698 71.1797 67.6849 71.3047 68.0703C71.4297 68.4557 71.4922 68.9141 71.4922 69.4453V75H70.0391V69.4297C70.0391 68.9557 69.9635 68.5885 69.8125 68.3281C69.6667 68.0625 69.4583 67.8776 69.1875 67.7734C68.9219 67.6641 68.6042 67.6094 68.2344 67.6094C67.9167 67.6094 67.6354 67.6641 67.3906 67.7734C67.1458 67.8828 66.9401 68.0339 66.7734 68.2266C66.6068 68.4141 66.4792 68.6302 66.3906 68.875C66.3073 69.1198 66.2656 69.3802 66.2656 69.6562ZM77.1875 75.1562C76.599 75.1562 76.0651 75.0573 75.5859 74.8594C75.112 74.6562 74.7031 74.3724 74.3594 74.0078C74.0208 73.6432 73.7604 73.2109 73.5781 72.7109C73.3958 72.2109 73.3047 71.6641 73.3047 71.0703V70.7422C73.3047 70.0547 73.4062 69.4427 73.6094 68.9062C73.8125 68.3646 74.0885 67.9062 74.4375 67.5312C74.7865 67.1562 75.1823 66.8724 75.625 66.6797C76.0677 66.487 76.526 66.3906 77 66.3906C77.6042 66.3906 78.125 66.4948 78.5625 66.7031C79.0052 66.9115 79.3672 67.2031 79.6484 67.5781C79.9297 67.9479 80.138 68.3854 80.2734 68.8906C80.4089 69.3906 80.4766 69.9375 80.4766 70.5312V71.1797H74.1641V70H79.0312V69.8906C79.0104 69.5156 78.9323 69.151 78.7969 68.7969C78.6667 68.4427 78.4583 68.151 78.1719 67.9219C77.8854 67.6927 77.4948 67.5781 77 67.5781C76.6719 67.5781 76.3698 67.6484 76.0938 67.7891C75.8177 67.9245 75.5807 68.1276 75.3828 68.3984C75.1849 68.6693 75.0312 69 74.9219 69.3906C74.8125 69.7812 74.7578 70.2318 74.7578 70.7422V71.0703C74.7578 71.4714 74.8125 71.849 74.9219 72.2031C75.0365 72.5521 75.2005 72.8594 75.4141 73.125C75.6328 73.3906 75.8958 73.599 76.2031 73.75C76.5156 73.901 76.8698 73.9766 77.2656 73.9766C77.776 73.9766 78.2083 73.8724 78.5625 73.6641C78.9167 73.4557 79.2266 73.1771 79.4922 72.8281L80.3672 73.5234C80.1849 73.7995 79.9531 74.0625 79.6719 74.3125C79.3906 74.5625 79.0443 74.7656 78.6328 74.9219C78.2266 75.0781 77.7448 75.1562 77.1875 75.1562Z" fill="black"/>
</g>
<defs>
<clipPath id="clip0_6_2">
<rect width="120" height="120" fill="white"/>
</clipPath>
</defs>
</svg>
