<svg width="120" height="120" viewBox="0 0 120 120" fill="none" xmlns="http://www.w3.org/2000/svg">
<g clip-path="url(#clip0_7_443)">
<path d="M60 118.125C92.1015 118.125 118.125 92.1015 118.125 60C118.125 27.8984 92.1015 1.875 60 1.875C27.8984 1.875 1.875 27.8984 1.875 60C1.875 92.1015 27.8984 118.125 60 118.125Z" fill="#515262"/>
<path d="M60 117.656C91.8427 117.656 117.656 91.8427 117.656 60C117.656 28.1573 91.8427 2.34375 60 2.34375C28.1573 2.34375 2.34375 28.1573 2.34375 60C2.34375 91.8427 28.1573 117.656 60 117.656Z" fill="#FF6464"/>
<path d="M60 95.3906C79.5457 95.3906 95.3906 79.5457 95.3906 60C95.3906 40.4543 79.5457 24.6094 60 24.6094C40.4543 24.6094 24.6094 40.4543 24.6094 60C24.6094 79.5457 40.4543 95.3906 60 95.3906Z" fill="#EFF2FA"/>
<path d="M22.6474 38.4345L9.65531 30.9335C4.70813 39.484 1.875 49.4109 1.875 60H16.875C16.875 52.1435 18.9769 44.7785 22.6474 38.4345Z" fill="#FF6464"/>
<path d="M38.4344 22.6474L30.9335 9.65508C22.1132 14.7588 14.7588 22.1133 9.65527 30.9335L22.6474 38.4345C26.4339 31.8902 31.8902 26.434 38.4344 22.6474Z" fill="#EFF2FA"/>
<path d="M60 16.875V1.875C49.4107 1.875 39.4839 4.70789 30.9335 9.65531L38.4344 22.6477C44.7785 18.9771 52.1435 16.875 60 16.875Z" fill="#FF6464"/>
<path d="M103.125 60H118.125C118.125 49.4109 115.292 39.484 110.345 30.9335L97.3525 38.4345C101.023 44.7785 103.125 52.1435 103.125 60Z" fill="#EFF2FA"/>
<path d="M97.3526 38.4345L110.345 30.9335C105.241 22.1133 97.887 14.7588 89.0665 9.65531L81.5656 22.6474C88.1098 26.434 93.566 31.8902 97.3526 38.4345Z" fill="#FF6464"/>
<path d="M81.5655 22.6474L89.0665 9.65531C80.516 4.70812 70.5891 1.875 60 1.875V16.875C67.8565 16.875 75.2215 18.9771 81.5655 22.6474Z" fill="#EFF2FA"/>
<path d="M16.875 60H1.875C1.875 70.5891 4.70813 80.516 9.65531 89.0667L22.6474 81.5655C18.9769 75.2215 16.875 67.8565 16.875 60Z" fill="#EFF2FA"/>
<path d="M81.5656 97.3526L89.0665 110.345C97.8867 105.241 105.241 97.887 110.345 89.0667L97.3526 81.5656C93.566 88.1098 88.1098 93.566 81.5656 97.3526Z" fill="#EFF2FA"/>
<path d="M22.6474 81.5655L9.65527 89.0667C14.7586 97.887 22.113 105.241 30.9335 110.345L38.4344 97.3526C31.8902 93.566 26.4339 88.1098 22.6474 81.5655Z" fill="#FF6464"/>
<path d="M103.125 60C103.125 67.8565 101.023 75.2215 97.3525 81.5655L110.345 89.0667C115.292 80.516 118.125 70.5891 118.125 60H103.125Z" fill="#FF6464"/>
<path d="M60 103.125V118.125C70.5891 118.125 80.516 115.292 89.0665 110.345L81.5655 97.3526C75.2215 101.023 67.8565 103.125 60 103.125Z" fill="#FF6464"/>
<path d="M38.4345 97.3526L30.9336 110.345C39.4841 115.292 49.411 118.125 60.0001 118.125V103.125C52.1436 103.125 44.7786 101.023 38.4345 97.3526Z" fill="#EFF2FA"/>
<path d="M92.7429 46.4794C91.5764 43.6582 89.9986 40.9472 88.0531 38.422L87.2583 37.3905L92.5988 34.3073L93.2053 35.1145C95.2568 37.8448 96.9368 40.7191 98.1987 43.657L98.5983 44.5875L93.2398 47.6813L92.7429 46.4794Z" fill="#EFF2FA"/>
<path d="M92.2941 35.7991L88.9557 37.7264C90.9092 40.2621 92.5555 43.0437 93.796 46.0439L97.1511 44.1068C95.8723 41.1288 94.2172 38.3588 92.2941 35.7991Z" fill="#EFF2FA"/>
<path d="M81.5779 31.9472C79.0528 30.0016 76.3418 28.4238 73.5206 27.2573L72.3187 26.7605L75.4125 21.402L76.3429 21.8016C79.2811 23.0634 82.155 24.7434 84.8854 26.7949L85.6926 27.4015L82.6097 32.742L81.5779 31.9472Z" fill="#EFF2FA"/>
<path d="M73.9561 26.2041C76.9563 27.4446 79.7379 29.0906 82.2736 31.0444L84.2008 27.7059C81.6412 25.7829 78.8709 24.1277 75.8932 22.8487L73.9561 26.2041Z" fill="#EFF2FA"/>
<path d="M64.6627 24.9145C62.888 24.6806 61.4066 24.5716 60.0001 24.5716C58.5936 24.5716 57.1121 24.6806 55.3374 24.9145L54.0486 25.0845V18.8848L55.0534 18.7648C56.8691 18.548 58.4872 18.4427 59.9998 18.4427C61.5125 18.4427 63.1306 18.548 64.9463 18.7648L65.9511 18.8848V25.0842L64.6627 24.9145Z" fill="#EFF2FA"/>
<path d="M55.1885 19.8966V23.7846C56.7668 23.5765 58.365 23.4321 60 23.4321C61.635 23.4321 63.2332 23.5767 64.8114 23.7846V19.8966C63.2306 19.7079 61.6307 19.5827 60 19.5827C58.3692 19.5827 56.7693 19.7079 55.1885 19.8966Z" fill="#EFF2FA"/>
<path d="M94.9158 65.9515L95.0857 64.6627C95.3196 62.888 95.4284 61.4065 95.4284 60C95.4284 58.5935 95.3194 57.112 95.0857 55.3373L94.9158 54.0485H101.115L101.235 55.0533C101.452 56.869 101.557 58.4869 101.557 59.9998C101.557 61.5131 101.452 63.131 101.235 64.9465L101.115 65.9513H94.9158V65.9515V65.9515Z" fill="#EFF2FA"/>
<path d="M96.5682 60C96.5682 61.6352 96.4236 63.2332 96.2157 64.8117H100.104C100.292 63.2306 100.418 61.631 100.418 60C100.418 58.3692 100.292 56.7694 100.104 55.1885H96.2157C96.4236 56.7668 96.5682 58.3648 96.5682 60Z" fill="#EFF2FA"/>
<path d="M18.885 65.9515L18.765 64.9467C18.5485 63.1312 18.443 61.5134 18.443 60C18.443 58.4871 18.5482 56.8692 18.765 55.0535L18.8848 54.0488H25.0845L24.9146 55.3376C24.6806 57.1123 24.5717 58.5938 24.5717 60.0002C24.5717 61.4067 24.6806 62.8882 24.9146 64.6629L25.0845 65.9517H18.885V65.9515Z" fill="#EFF2FA"/>
<path d="M23.4319 60C23.4319 58.3648 23.5765 56.7668 23.7844 55.1885H19.8966C19.7079 56.7694 19.5828 58.3692 19.5828 60C19.5828 61.631 19.7079 63.2306 19.8968 64.8117H23.7846C23.5765 63.2332 23.4319 61.6352 23.4319 60Z" fill="#EFF2FA"/>
<path d="M34.3071 27.4013L35.1143 26.7947C37.8446 24.7434 40.7187 23.0632 43.6568 21.8013L44.5873 21.4017L47.681 26.7602L46.4792 27.2571C43.658 28.4236 40.947 30.0014 38.4218 31.947L37.3901 32.7417L34.3071 27.4013Z" fill="#EFF2FA"/>
<path d="M37.7265 31.0444C40.2622 29.0909 43.0437 27.4446 46.044 26.2041L44.1069 22.849C41.1289 24.128 38.3588 25.7831 35.7992 27.7062L37.7265 31.0444Z" fill="#EFF2FA"/>
<path d="M87.2583 82.6097L88.0531 81.5782C89.9986 79.053 91.5764 76.342 92.7429 73.5209L93.2398 72.319L98.5983 75.4127L98.1987 76.3432C96.937 79.2806 95.2571 82.1548 93.2053 84.8855L92.5988 85.6927L87.2583 82.6097Z" fill="#EFF2FA"/>
<path d="M97.1512 75.8934L93.7961 73.9563C92.5556 76.9566 90.9096 79.7379 88.9561 82.2738L92.2943 84.2011C94.2171 81.6413 95.8725 78.8712 97.1512 75.8934Z" fill="#EFF2FA"/>
<path d="M60.0001 101.557C58.4872 101.557 56.8693 101.452 55.0536 101.235L54.0488 101.115V94.916L55.3377 95.0859C57.1123 95.3199 58.5938 95.4286 60.0003 95.4286C61.4068 95.4286 62.8883 95.3196 64.663 95.0859L65.9518 94.916V101.115L64.947 101.235C63.1309 101.452 61.513 101.557 60.0001 101.557Z" fill="#EFF2FA"/>
<path d="M64.8114 100.103V96.2156C63.2332 96.4237 61.635 96.5684 60 96.5684C58.365 96.5684 56.7668 96.4237 55.1885 96.2156V100.104C56.7693 100.292 58.3692 100.417 60 100.417C61.6307 100.417 63.2306 100.292 64.8114 100.103Z" fill="#EFF2FA"/>
<path d="M72.319 93.2395L73.5208 92.7427C76.342 91.5762 79.053 89.9984 81.5782 88.0528L82.6099 87.258L85.6929 92.5983L84.8857 93.2048C82.1552 95.2563 79.2811 96.9363 76.3432 98.1982L75.4127 98.5978L72.319 93.2395Z" fill="#EFF2FA"/>
<path d="M82.2736 88.9559C79.7379 90.9094 76.9563 92.5554 73.9561 93.7959L75.8932 97.151C78.8709 95.872 81.6412 94.2169 84.2008 92.2936L82.2736 88.9559Z" fill="#EFF2FA"/>
<path d="M43.6571 98.1984C40.7192 96.9366 37.845 95.2566 35.1146 93.2051L34.3074 92.5985L37.3903 87.2583L38.4221 88.053C40.9472 89.9986 43.6582 91.5764 46.4794 92.7429L47.6813 93.2398L44.5875 98.5983L43.6571 98.1984Z" fill="#EFF2FA"/>
<path d="M46.044 93.7959C43.0437 92.5554 40.2622 90.9094 37.7265 88.9559L35.7992 92.2938C38.3588 94.2171 41.1291 95.8723 44.1069 97.1512L46.044 93.7959Z" fill="#EFF2FA"/>
<path d="M26.7947 84.8855C24.743 82.1548 23.063 79.2806 21.8013 76.3432L21.4017 75.4127L26.7602 72.319L27.2571 73.5209C28.4236 76.342 30.0014 79.053 31.947 81.5782L32.7417 82.6097L27.4013 85.6927L26.7947 84.8855Z" fill="#EFF2FA"/>
<path d="M31.0442 82.2736C29.0906 79.7379 27.4446 76.9563 26.2041 73.9561L22.849 75.8932C24.1277 78.8709 25.7831 81.641 27.7062 84.2006L31.0442 82.2736Z" fill="#EFF2FA"/>
<path d="M21.402 44.5875L21.8016 43.657C23.0635 40.7191 24.7435 37.845 26.7949 35.1145L27.4015 34.3073L32.742 37.3905L31.9472 38.422C30.0017 40.9472 28.4239 43.6582 27.2574 46.4794L26.7605 47.6813L21.402 44.5875Z" fill="#EFF2FA"/>
<path d="M22.8488 44.1066L26.2038 46.0437C27.4444 43.0434 29.0904 40.2619 31.0439 37.7262L27.7057 35.7989C25.7829 38.3588 24.1277 41.1288 22.8488 44.1066Z" fill="#EFF2FA"/>
<path d="M102.427 17.5734C91.0938 6.24094 76.0266 0 60 0C43.9734 0 28.9062 6.24094 17.5734 17.5734C6.2407 28.9059 0 43.9734 0 60C0 76.0266 6.24094 91.0941 17.5734 102.427C28.9062 113.759 43.9734 120 60 120C76.0266 120 91.0938 113.759 102.427 102.427C113.759 91.0941 120 76.0266 120 60C120 43.9734 113.759 28.9062 102.427 17.5734ZM109.615 86.4799L99.8672 80.8523C102.869 75.1359 104.677 68.6995 104.958 61.875H116.216C115.923 70.7454 113.569 79.1018 109.615 86.4799ZM58.125 104.958V116.216C49.2546 115.923 40.8982 113.569 33.5201 109.615L39.1479 99.8672C44.8641 102.869 51.3005 104.677 58.125 104.958ZM61.875 104.958C68.6995 104.677 75.1359 102.869 80.8523 99.8672L86.4802 109.615C79.102 113.569 70.7454 115.924 61.8752 116.216L61.875 104.958ZM60 101.25C37.2546 101.25 18.75 82.7454 18.75 60C18.75 37.2546 37.2546 18.75 60 18.75C82.7454 18.75 101.25 37.2546 101.25 60C101.25 82.7454 82.7454 101.25 60 101.25ZM3.78445 61.875H15.042C15.3232 68.6995 17.1309 75.1359 20.1328 80.8523L10.3852 86.4802C6.43148 79.1018 4.07672 70.7454 3.78445 61.875ZM10.3854 33.5201L20.1328 39.1477C17.1309 44.8641 15.3232 51.3005 15.042 58.125H3.78445C4.07672 49.2546 6.43148 40.8982 10.3854 33.5201ZM61.875 15.042V3.78445C70.7454 4.07648 79.1018 6.43125 86.4799 10.3852L80.8523 20.1328C75.1359 17.1309 68.6995 15.3232 61.875 15.042ZM58.125 15.042C51.3005 15.3232 44.8641 17.1309 39.1477 20.1328L33.5198 10.3852C40.898 6.43125 49.2546 4.07648 58.1248 3.78445L58.125 15.042ZM104.958 58.125C104.677 51.3005 102.869 44.8641 99.8672 39.1477L109.615 33.5198C113.569 40.898 115.924 49.2546 116.216 58.1248L104.958 58.125ZM107.734 30.2761L97.988 35.9027C94.433 30.3183 89.682 25.567 84.0973 22.012L89.7239 12.2665C97.0087 16.8192 103.181 22.9912 107.734 30.2761ZM30.2761 12.2665L35.9027 22.012C30.3183 25.567 25.567 30.318 22.012 35.9027L12.2665 30.2761C16.8192 22.9912 22.9912 16.8192 30.2761 12.2665ZM12.2665 89.7239L22.012 84.0973C25.567 89.6817 30.318 94.433 35.9027 97.988L30.2761 107.734C22.9912 103.181 16.8192 97.0087 12.2665 89.7239ZM89.7239 107.734L84.0973 97.988C89.6817 94.433 94.433 89.682 97.988 84.0973L107.734 89.7239C103.181 97.0087 97.0087 103.181 89.7239 107.734Z" fill="#2D2B29"/>
<path d="M84.8674 37.1815C85.2373 37.5844 85.7424 37.7885 86.2491 37.7885C86.7021 37.7885 87.1566 37.6252 87.5166 37.2949C88.2795 36.5946 88.3301 35.4084 87.6298 34.6455C86.9065 33.8578 86.1406 33.0919 85.3531 32.3691C84.5904 31.669 83.4042 31.7196 82.7039 32.4825C82.0036 33.2454 82.0545 34.4313 82.8174 35.1316C83.5263 35.7823 84.2161 36.472 84.8674 37.1815Z" fill="#2D2B29"/>
<path d="M26.25 60C26.25 41.3902 41.3902 26.25 60 26.25C65.5779 26.25 71.104 27.6387 75.9813 30.2658C76.893 30.7568 78.0302 30.416 78.5212 29.5043C79.0123 28.5923 78.6712 27.4554 77.7595 26.9641C72.3377 24.0436 66.1966 22.5 60 22.5C39.3225 22.5 22.5 39.3225 22.5 60C22.5 68.6119 25.492 77.0234 30.9251 83.685C31.2959 84.1395 31.8352 84.375 32.3794 84.375C32.7959 84.375 33.2152 84.2367 33.5632 83.9529C34.3657 83.2985 34.4857 82.1173 33.8313 81.3148C28.9423 75.3206 26.25 67.7508 26.25 60Z" fill="#2D2B29"/>
<path d="M93.0321 42.2334C92.5406 41.3217 91.4037 40.9812 90.4919 41.4724C89.5805 41.9637 89.2397 43.1009 89.7309 44.0123C92.3601 48.8911 93.75 54.4195 93.75 60C93.75 78.6098 78.6098 93.75 60 93.75C52.249 93.75 44.6789 91.0575 38.6845 86.1682C37.8823 85.5138 36.7012 85.6336 36.0464 86.4363C35.392 87.2388 35.5118 88.4198 36.3145 89.0745C42.9762 94.5077 51.3876 97.5 60 97.5C80.6775 97.5 97.5 80.6775 97.5 60C97.5 53.8005 95.955 47.6569 93.0321 42.2334Z" fill="#2D2B29"/>
<path d="M34.4541 61.9922L36.4297 55.0469H37.3867L36.833 57.7471L34.707 65H33.7568L34.4541 61.9922ZM32.4102 55.0469L33.9824 61.8555L34.4541 65H33.5107L31.0977 55.0469H32.4102ZM39.9434 61.8486L41.4814 55.0469H42.8008L40.3945 65H39.4512L39.9434 61.8486ZM37.5303 55.0469L39.4512 61.9922L40.1484 65H39.1982L37.1475 57.7471L36.5869 55.0469H37.5303ZM45.4463 57.6035V65H44.1748V57.6035H45.4463ZM44.0791 55.6416C44.0791 55.4365 44.1406 55.2633 44.2637 55.1221C44.3913 54.9808 44.5781 54.9102 44.8242 54.9102C45.0658 54.9102 45.2503 54.9808 45.3779 55.1221C45.5101 55.2633 45.5762 55.4365 45.5762 55.6416C45.5762 55.8376 45.5101 56.0062 45.3779 56.1475C45.2503 56.2842 45.0658 56.3525 44.8242 56.3525C44.5781 56.3525 44.3913 56.2842 44.2637 56.1475C44.1406 56.0062 44.0791 55.8376 44.0791 55.6416ZM50.5732 57.6035V58.5742H46.5742V57.6035H50.5732ZM47.9277 55.8057H49.1924V63.168C49.1924 63.4186 49.2311 63.6077 49.3086 63.7354C49.3861 63.863 49.4863 63.9473 49.6094 63.9883C49.7324 64.0293 49.8646 64.0498 50.0059 64.0498C50.1107 64.0498 50.2201 64.0407 50.334 64.0225C50.4525 63.9997 50.5413 63.9814 50.6006 63.9678L50.6074 65C50.5072 65.0319 50.375 65.0615 50.2109 65.0889C50.0514 65.1208 49.8577 65.1367 49.6299 65.1367C49.32 65.1367 49.0352 65.0752 48.7754 64.9521C48.5156 64.8291 48.3083 64.624 48.1533 64.3369C48.0029 64.0452 47.9277 63.6533 47.9277 63.1611V55.8057ZM53.3213 54.5V65H52.0566V54.5H53.3213ZM53.0205 61.0215L52.4941 61.001C52.4987 60.4951 52.5739 60.028 52.7197 59.5996C52.8656 59.1667 53.0706 58.7907 53.335 58.4717C53.5993 58.1527 53.9137 57.9066 54.2783 57.7334C54.6475 57.5557 55.0553 57.4668 55.502 57.4668C55.8665 57.4668 56.1947 57.5169 56.4863 57.6172C56.778 57.7129 57.0264 57.8678 57.2314 58.082C57.4411 58.2962 57.6006 58.5742 57.71 58.916C57.8193 59.2533 57.874 59.6657 57.874 60.1533V65H56.6025V60.1396C56.6025 59.7523 56.5456 59.4424 56.4316 59.21C56.3177 58.973 56.1514 58.8021 55.9326 58.6973C55.7139 58.5879 55.445 58.5332 55.126 58.5332C54.8115 58.5332 54.5244 58.5993 54.2646 58.7314C54.0094 58.8636 53.7884 59.0459 53.6016 59.2783C53.4193 59.5107 53.2757 59.7773 53.1709 60.0781C53.0706 60.3743 53.0205 60.6888 53.0205 61.0215ZM64.4297 63.5645V54.5H65.7012V65H64.5391L64.4297 63.5645ZM59.4531 61.3838V61.2402C59.4531 60.6751 59.5215 60.1624 59.6582 59.7021C59.7995 59.2373 59.9977 58.8385 60.2529 58.5059C60.5127 58.1732 60.8203 57.918 61.1758 57.7402C61.5358 57.5579 61.9368 57.4668 62.3789 57.4668C62.8438 57.4668 63.2493 57.5488 63.5957 57.7129C63.9466 57.8724 64.2428 58.1071 64.4844 58.417C64.7305 58.7223 64.9242 59.0915 65.0654 59.5244C65.2067 59.9574 65.3047 60.4473 65.3594 60.9941V61.623C65.3092 62.1654 65.2113 62.653 65.0654 63.0859C64.9242 63.5189 64.7305 63.888 64.4844 64.1934C64.2428 64.4987 63.9466 64.7334 63.5957 64.8975C63.2448 65.057 62.8346 65.1367 62.3652 65.1367C61.9323 65.1367 61.5358 65.0433 61.1758 64.8564C60.8203 64.6696 60.5127 64.4076 60.2529 64.0703C59.9977 63.7331 59.7995 63.3366 59.6582 62.8809C59.5215 62.4206 59.4531 61.9215 59.4531 61.3838ZM60.7246 61.2402V61.3838C60.7246 61.7529 60.7611 62.0993 60.834 62.4229C60.9115 62.7464 61.0299 63.0312 61.1895 63.2773C61.349 63.5234 61.5518 63.7171 61.7979 63.8584C62.0439 63.9951 62.3379 64.0635 62.6797 64.0635C63.099 64.0635 63.443 63.9746 63.7119 63.7969C63.9854 63.6191 64.2041 63.3844 64.3682 63.0928C64.5322 62.8011 64.6598 62.4844 64.751 62.1426V60.4951C64.6963 60.2445 64.6165 60.0029 64.5117 59.7705C64.4115 59.5335 64.2793 59.3239 64.1152 59.1416C63.9557 58.9548 63.7575 58.8066 63.5205 58.6973C63.2881 58.5879 63.0124 58.5332 62.6934 58.5332C62.347 58.5332 62.0485 58.6061 61.7979 58.752C61.5518 58.8932 61.349 59.0892 61.1895 59.3398C61.0299 59.5859 60.9115 59.873 60.834 60.2012C60.7611 60.5247 60.7246 60.8711 60.7246 61.2402ZM68.9346 58.7656V65H67.6699V57.6035H68.9004L68.9346 58.7656ZM71.2451 57.5625L71.2383 58.7383C71.1335 58.7155 71.0332 58.7018 70.9375 58.6973C70.8464 58.6882 70.7415 58.6836 70.623 58.6836C70.3314 58.6836 70.0739 58.7292 69.8506 58.8203C69.6273 58.9115 69.4382 59.0391 69.2832 59.2031C69.1283 59.3672 69.0052 59.5632 68.9141 59.791C68.8275 60.0143 68.7705 60.2604 68.7432 60.5293L68.3877 60.7344C68.3877 60.2878 68.431 59.8685 68.5176 59.4766C68.6087 59.0846 68.7477 58.7383 68.9346 58.4375C69.1214 58.1322 69.3584 57.8952 69.6455 57.7266C69.9372 57.5534 70.2835 57.4668 70.6846 57.4668C70.7757 57.4668 70.8805 57.4782 70.999 57.501C71.1175 57.5192 71.1995 57.5397 71.2451 57.5625ZM76.502 63.7354V59.9277C76.502 59.6361 76.4427 59.3831 76.3242 59.1689C76.2103 58.9502 76.0371 58.7816 75.8047 58.6631C75.5723 58.5446 75.2852 58.4854 74.9434 58.4854C74.6243 58.4854 74.3441 58.54 74.1025 58.6494C73.8656 58.7588 73.6787 58.9023 73.542 59.0801C73.4098 59.2578 73.3438 59.4492 73.3438 59.6543H72.0791C72.0791 59.39 72.1475 59.1279 72.2842 58.8682C72.4209 58.6084 72.6169 58.3737 72.8721 58.1641C73.1318 57.9499 73.4417 57.7812 73.8018 57.6582C74.1663 57.5306 74.5719 57.4668 75.0186 57.4668C75.5563 57.4668 76.0303 57.5579 76.4404 57.7402C76.8551 57.9225 77.1787 58.1982 77.4111 58.5674C77.6481 58.932 77.7666 59.39 77.7666 59.9414V63.3867C77.7666 63.6328 77.7871 63.8949 77.8281 64.1729C77.8737 64.4508 77.9398 64.6901 78.0264 64.8906V65H76.707C76.6432 64.8542 76.5931 64.6605 76.5566 64.4189C76.5202 64.1729 76.502 63.945 76.502 63.7354ZM76.7207 60.5156L76.7344 61.4043H75.4561C75.096 61.4043 74.7747 61.4339 74.4922 61.4932C74.2096 61.5479 73.9727 61.6322 73.7812 61.7461C73.5898 61.86 73.444 62.0036 73.3438 62.1768C73.2435 62.3454 73.1934 62.5436 73.1934 62.7715C73.1934 63.0039 73.2458 63.2158 73.3506 63.4072C73.4554 63.5986 73.6126 63.7513 73.8223 63.8652C74.0365 63.9746 74.2985 64.0293 74.6084 64.0293C74.9958 64.0293 75.3376 63.9473 75.6338 63.7832C75.93 63.6191 76.1647 63.4186 76.3379 63.1816C76.5156 62.9447 76.6113 62.7145 76.625 62.4912L77.165 63.0996C77.1331 63.291 77.0465 63.5029 76.9053 63.7354C76.764 63.9678 76.5749 64.1911 76.3379 64.4053C76.1055 64.6149 75.8275 64.7904 75.5039 64.9316C75.1849 65.0684 74.8249 65.1367 74.4238 65.1367C73.9225 65.1367 73.4827 65.0387 73.1045 64.8428C72.7308 64.6468 72.4391 64.3848 72.2295 64.0566C72.0244 63.724 71.9219 63.3525 71.9219 62.9424C71.9219 62.5459 71.9993 62.1973 72.1543 61.8965C72.3092 61.5911 72.5326 61.3382 72.8242 61.1377C73.1159 60.9326 73.4668 60.7777 73.877 60.6729C74.2871 60.568 74.7451 60.5156 75.251 60.5156H76.7207ZM81.6289 63.6875L83.5293 57.6035H84.3633L84.1992 58.8135L82.2646 65H81.4512L81.6289 63.6875ZM80.3506 57.6035L81.9707 63.7559L82.0869 65H81.2324L79.0859 57.6035H80.3506ZM86.1816 63.708L87.7266 57.6035H88.9844L86.8379 65H85.9902L86.1816 63.708ZM84.5479 57.6035L86.4072 63.585L86.6191 65H85.8125L83.8232 58.7998L83.6592 57.6035H84.5479Z" fill="black"/>
</g>
<defs>
<clipPath id="clip0_7_443">
<rect width="120" height="120" fill="white"/>
</clipPath>
</defs>
</svg>
